<svg xmlns="http://www.w3.org/2000/svg" width="20" height="14" fill="none" viewBox="0 0 20 14"><path fill="#818181" d="M16.281 11.734a.95.95 0 0 0 .703.282.95.95 0 0 0 .703-.282q.33-.327.329-.75a.89.89 0 0 0-.328-.703.95.95 0 0 0-.704-.281.96.96 0 0 0-.703.281.96.96 0 0 0-.281.703q0 .423.281.75m-1.406-2.859q.89-.89 2.11-.89 1.218 0 2.109.89.89.89.89 2.11 0 1.218-.89 2.109-.89.89-2.11.89-1.218 0-2.109-.89-.89-.89-.89-2.11 0-1.218.89-2.109M3.015 1h4.97v2.016h-4.97zm1.266 10.734a.95.95 0 0 0 .703.282.95.95 0 0 0 .704-.282q.328-.327.328-.75H4q0 .423.281.75m12.703-9.75V5.36l-4.5 5.625h-4.5q0 1.22-.89 2.11t-2.11.89q-1.218 0-2.109-.89-.89-.89-.89-2.11H.014v-3q0-1.64 1.173-2.812Q2.358 4 4 4h3.984v5.016H11.5l3.516-4.36V1.984h-3V.016h3q.796 0 1.359.609.61.562.61 1.36"/></svg>