<svg xmlns="http://www.w3.org/2000/svg" width="96" height="122" fill="none" viewBox="0 0 96 122"><path fill="#ffa83f" d="m34.586 4.17-.015.02-.071.1q-.556.783-1.038 1.616-.41.668-.717 1.393c-.132.313-.173.48-.188.537v.02c.058.462.216.904.463 1.294.381.694.905 1.419 1.566 2.32l.051.063c.6.824 1.323 1.81 1.882 2.832.57 1.043 1.12 2.373 1.12 3.885 0 .98-.331 1.92-.606 2.576q-.441 1.051-1.027 2.024a26 26 0 0 1-1.287 1.992l-.092.13-.025.042-.01.01a2.53 2.53 0 0 1-1.675 1.02 2.5 2.5 0 0 1-1.886-.493 2.62 2.62 0 0 1-.995-1.716 2.66 2.66 0 0 1 .48-1.934l.016-.021.071-.1q.556-.782 1.038-1.616.41-.668.717-1.392c.133-.313.173-.48.189-.537a3.2 3.2 0 0 0-.458-1.314 21 21 0 0 0-1.572-2.321l-.051-.063a26 26 0 0 1-1.882-2.831 8.1 8.1 0 0 1-1.12-3.886c0-.98.331-1.919.606-2.576.3-.72.682-1.429 1.027-2.023q.608-1.02 1.287-1.992l.128-.183a2.53 2.53 0 0 1 1.674-1.02 2.5 2.5 0 0 1 1.887.493 2.62 2.62 0 0 1 .994 1.717 2.66 2.66 0 0 1-.48 1.934m15.261 0-.015.02-.071.1q-.556.783-1.038 1.616-.41.668-.717 1.393c-.133.313-.173.48-.188.537v.02c.058.462.216.904.462 1.294.382.694.906 1.419 1.567 2.32l.051.063c.6.824 1.323 1.81 1.882 2.832.57 1.043 1.12 2.373 1.12 3.885 0 .98-.331 1.92-.606 2.576q-.441 1.051-1.027 2.024-.6 1.026-1.288 1.992l-.091.13-.026.042-.01.01a2.53 2.53 0 0 1-1.674 1.02 2.5 2.5 0 0 1-1.887-.493 2.62 2.62 0 0 1-.994-1.716 2.66 2.66 0 0 1 .48-1.934l.016-.021.071-.1q.556-.782 1.038-1.616.41-.668.717-1.392c.132-.313.173-.48.188-.537a3.2 3.2 0 0 0-.458-1.314 21 21 0 0 0-1.571-2.321l-.051-.063a26 26 0 0 1-1.882-2.831 8.1 8.1 0 0 1-1.12-3.886c0-.98.331-1.919.606-2.576.3-.72.681-1.429 1.027-2.023q.608-1.02 1.287-1.992l.128-.183a2.53 2.53 0 0 1 1.674-1.02 2.5 2.5 0 0 1 1.886.493 2.62 2.62 0 0 1 .995 1.717 2.66 2.66 0 0 1-.48 1.934m15.261 0-.015.02-.071.1q-.556.783-1.038 1.616-.41.668-.717 1.393c-.133.313-.173.48-.189.537v.02c.06.462.217.904.463 1.294.382.694.906 1.419 1.567 2.32l.05.063c.601.824 1.324 1.81 1.883 2.832.57 1.043 1.12 2.373 1.12 3.885 0 .98-.331 1.92-.606 2.576a16 16 0 0 1-1.028 2.024 26 26 0 0 1-1.282 1.992l-.096.13-.026.042-.01.01a2.53 2.53 0 0 1-1.674 1.02 2.5 2.5 0 0 1-1.887-.493 2.62 2.62 0 0 1-.994-1.716 2.66 2.66 0 0 1 .48-1.934l.016-.021.071-.1q.555-.782 1.038-1.616.41-.668.717-1.392c.132-.313.173-.48.188-.537a3.2 3.2 0 0 0-.458-1.314 21 21 0 0 0-1.572-2.321l-.05-.063a26 26 0 0 1-1.883-2.831 8.1 8.1 0 0 1-1.119-3.886c0-.98.331-1.919.606-2.576.3-.72.681-1.429 1.027-2.023q.607-1.02 1.287-1.992l.127-.183a2.53 2.53 0 0 1 1.675-1.02 2.5 2.5 0 0 1 1.886.493c.54.415.898 1.032.995 1.717a2.66 2.66 0 0 1-.48 1.934M83.672 65.915A14.27 14.27 0 0 0 76.5 53.96a14.58 14.58 0 0 0-14.463-12.47 16 16 0 0 0-3.985.517 14.74 14.74 0 0 0-20.36 0 16 16 0 0 0-3.984-.518 14.58 14.58 0 0 0-14.543 12.471 14.26 14.26 0 0 0-7.212 11.954 3.984 3.984 0 0 0-3.984 3.984 39.84 39.84 0 0 0 19.922 34.505v5.339a3.984 3.984 0 0 0 3.984 3.984H63.75a3.985 3.985 0 0 0 3.984-3.984v-5.339a39.85 39.85 0 0 0 19.922-34.505 3.984 3.984 0 0 0-3.984-3.984m-63.75 0a6.33 6.33 0 0 1 4.422-5.539l3.308-1.036-.638-3.387a6.535 6.535 0 0 1 6.614-6.454 7.2 7.2 0 0 1 3.307.797l3.227 1.793 1.993-3.068a6.813 6.813 0 0 1 11.315 0l1.992 3.068 3.228-1.793a7.2 7.2 0 0 1 3.307-.797 6.575 6.575 0 0 1 6.654 6.375l-.638 3.387 3.267 1.115a6.335 6.335 0 0 1 4.423 5.539z"/></svg>