<svg xmlns="http://www.w3.org/2000/svg" width="393" height="54" fill="none" viewBox="0 0 393 54"><path fill="#424242" d="m159.183 16.944-.003.004-.012.018a3.6 3.6 0 0 0-.312.534c-.023.055-.03.085-.033.095v.004c.01.081.038.16.082.229.068.123.161.252.278.412l.009.01c.106.147.235.322.334.503.101.185.198.421.198.69 0 .173-.058.34-.107.457a3 3 0 0 1-.182.359q-.106.181-.229.353l-.016.023-.004.007-.002.002a.443.443 0 0 1-.632.093.47.47 0 0 1-.091-.648l.003-.002.012-.018a3.6 3.6 0 0 0 .312-.534c.023-.055.03-.085.033-.095a.6.6 0 0 0-.081-.233 4 4 0 0 0-.279-.412l-.009-.011a5 5 0 0 1-.334-.503 1.45 1.45 0 0 1-.199-.689c0-.174.059-.34.108-.457.053-.128.121-.254.182-.359q.108-.181.228-.353l.023-.033a.444.444 0 0 1 .632-.093.47.47 0 0 1 .091.648m2.708 0-.003.004-.013.018a4 4 0 0 0-.184.287 2 2 0 0 0-.127.247c-.024.055-.031.085-.034.095v.004a.6.6 0 0 0 .083.229c.067.123.16.252.278.412l.009.01c.106.147.234.322.333.503.102.185.199.421.199.69 0 .173-.059.34-.107.457a3 3 0 0 1-.183.359q-.106.181-.228.353l-.016.023-.005.007-.002.002a.442.442 0 0 1-.631.093.47.47 0 0 1-.091-.648l.002-.002.013-.018q.099-.139.184-.287.072-.118.127-.247c.024-.055.031-.085.034-.095a.6.6 0 0 0-.082-.233 4 4 0 0 0-.278-.412l-.01-.011a5 5 0 0 1-.333-.503 1.44 1.44 0 0 1-.199-.689c0-.174.059-.34.107-.457.054-.128.121-.254.183-.359a6 6 0 0 1 .228-.353l.023-.033a.447.447 0 0 1 .631-.093c.096.073.16.183.177.304a.48.48 0 0 1-.085.343m2.707 0-.003.004-.012.018a3.6 3.6 0 0 0-.312.534c-.023.055-.03.085-.033.095v.004c.01.081.038.16.082.229.068.123.161.252.278.412l.009.01c.107.147.235.322.334.503.101.185.199.421.199.69 0 .173-.059.34-.108.457a3 3 0 0 1-.182.359q-.106.181-.228.353l-.017.023-.004.007-.002.002a.443.443 0 0 1-.632.093.47.47 0 0 1-.091-.648l.003-.002.012-.018a4 4 0 0 0 .185-.287q.072-.118.127-.247c.023-.055.03-.085.033-.095a.55.55 0 0 0-.081-.233 4 4 0 0 0-.279-.412l-.009-.011a5 5 0 0 1-.334-.503 1.44 1.44 0 0 1-.198-.689c0-.174.058-.34.107-.457.053-.128.121-.254.182-.359q.108-.181.229-.353l.022-.033a.444.444 0 0 1 .632-.093.47.47 0 0 1 .091.648M167.892 27.899a2.53 2.53 0 0 0-1.273-2.12 2.59 2.59 0 0 0-2.566-2.213 2.8 2.8 0 0 0-.707.092 2.613 2.613 0 0 0-3.612 0 2.8 2.8 0 0 0-.707-.092 2.585 2.585 0 0 0-2.58 2.212 2.53 2.53 0 0 0-1.28 2.121.71.71 0 0 0-.707.707 7.06 7.06 0 0 0 3.535 6.122v.947a.705.705 0 0 0 .707.707h5.655a.707.707 0 0 0 .707-.707v-.947a7.06 7.06 0 0 0 3.534-6.122.705.705 0 0 0-.706-.707m-11.311 0a1.12 1.12 0 0 1 .785-.983l.587-.183-.114-.601a1.163 1.163 0 0 1 1.174-1.146c.204 0 .405.048.587.142l.572.318.354-.544a1.206 1.206 0 0 1 1.572-.393c.175.093.325.228.435.393l.354.544.572-.318c.182-.094.383-.142.587-.142a1.17 1.17 0 0 1 1.181 1.132l-.114.6.58.198a1.125 1.125 0 0 1 .785.983zM182.97 15.648q2.088-.528 3.048 2.328.264.816.168 1.32-.072.504-.648 1.536-.624 1.104-1.704 1.536-1.056.432-2.04.192t-1.704-1.104-.72-2.112q0-.816.072-1.032a3.46 3.46 0 0 1 1.056-1.608 3.9 3.9 0 0 1 1.776-.888q.168-.048.696-.168m.552 2.184q-.432-.192-1.176.048-.72.24-1.008.648-.288.432 0 1.152.312.696.84.816.72.168 1.32-.408.624-.576.624-1.224 0-.672-.6-1.032m-1.104 5.064q.936-.264 1.248.072.12.12.12.312.024.168.024 1.056 0 1.176.048 1.488l.024.264 2.328-.024q2.304-.024 2.352.048t.024.936q-.024.84-.072.888-.12.12-4.896.264-4.776.12-5.784.048-.768-.048-.864-.144t-.12-.816v-.216q-.024-.48.216-.552.264-.096 1.752-.144.408-.024.648-.024 2.208-.072 2.256-.072.096-.024.192-2.568.024-.48.096-.6.072-.144.408-.216m-2.16 6.984q.096 0 .288-.024.6-.048.696.144.12.168.144 1.32v.528q.048 1.872.096 2.04.024.12.336.144t2.16-.024q2.352-.024 2.712-.048.36-.048.408.192.048.264-.072 1.368v.048q-.048.312-.528.36-.456.048-3.24.048h-3.864l-.072-.408q-.096-.384-.12-2.928 0-2.568.072-2.64.096-.072.984-.12m21.457-10.224q.576-.12.744-.096.192.024.24.192.12.648.192 6.168.072 5.496-.048 5.952a.19.19 0 0 1-.168.168h-.912q-.816 0-.936-.024t-.096-.216l.024-5.976q.048-5.904.072-5.976.048-.024.24-.072.24-.048.648-.12m-9.048 2.232q.048-.048 1.92 0 1.896.024 1.968.072.048.072-.024.672-.048.6-.144.912-.096.36-.144.816-.072.432-.144.792-.072.312-.12 1.032-.264 3.576-.432 3.96-.048.096-.192.12-.12.024-.816 0-.912-.048-1.008-.12-.096-.096-.024-.744.288-2.256.456-4.68l.024-.6-1.896-.024q-.144 0-.456-.024-1.584-.024-1.848-.144-.264-.144-.24-.936 0-.144.024-.216v-.768l1.536-.024q1.512-.048 1.56-.096m23-5.904q.456-.048.552-.024.096 0 .12.096.192.504.192 2.64v.288q0 .864.048 1.008.072.12.456.12h.12q.6 0 1.776.048 1.056.024 1.248.096.192.048.144.36a5 5 0 0 0-.096.672v.168q-.048.456-.24.528-.168.072-1.224.072h-.96q-.36 0-.48-.024a.9.9 0 0 0-.336.024 2 2 0 0 1-.264.048q-.024-.024-.144.096t-.12.168q0 .024-.048.264a3 3 0 0 0-.024.336q.024.096.024.456v1.104q0 1.224-.096 1.44-.072.192-.624.216a.7.7 0 0 0-.216.024q-.144 0-.36.024-.432.072-.528-.144-.168-.384-.096-4.08 0-1.368.024-2.208l.048-3.672.384-.048q.216-.024.72-.096m-5.4 1.128q.504-.096 1.056-.048.552.024.6.12.072.144.096 1.152t-.024 1.68q-.096.936-.144 2.928v.36q-.048 1.416-.096 1.656t-.36.312a.2.2 0 0 1-.072.024q-.624.168-3.216.192-2.568.024-2.736-.12-.168-.12-.216-.624-.048-.528-.048-1.992 0-1.848-.048-2.712a11 11 0 0 1-.048-.528q-.12-1.632-.024-1.896.12-.264.84-.288h.216q.696-.048.792.096t.144 1.152l.048.96q.024.024 1.056 0 1.056-.024 1.368-.048l.528-.072.024-1.152v-1.128zm-.36 5.256.024-.936h-.936q-.936 0-1.368.072l-.456.048v1.752a.17.17 0 0 0 .144.144q.144.048 1.296 0 1.176-.072 1.224-.12t.072-.96m4.08 5.664q1.152-.144 1.464.216.12.168.048 3.456t-.216 3.6q-.12.192-.624.216-.48.048-2.904.048l-3.048.024-.048-.24q-.12-.432-.192-3.624-.072-3.216.048-3.264.072-.024.696-.12.648-.096.816-.096.12 0 .168.168.048.144.096.744.048.72.096.792.072.048 1.68 0l1.608-.048v-.84q0-.72.024-.864.048-.144.288-.168m-.576 4.848q.024-.72-.072-.792-.072-.096-1.224-.096h-.336q-.96 0-1.128.096-.144.072-.12.576v.36q.024.552.144.624.144.096.912.072h.264q.12 0 .312-.024.912-.024 1.056-.12.168-.072.192-.552zm19.017-16.752q.504-.072.576 0 .096.048.144.552.216 1.632.216 2.976 0 .624.024.744.024.096.192.096.36 0 1.608.072 1.248.048 1.488.072.312.048.336.168.048.12-.024.696v.168q-.048.288-.072.408a.47.47 0 0 1-.096.24.6.6 0 0 1-.144.168q-.048.024-.312.072a5 5 0 0 1-.48.024q-.192 0-.696-.024h-.264q-1.56-.048-1.608-.024t-.096 1.44q-.072 2.664-.216 2.736-.24.096-.96.096-.696-.024-.768-.144-.096-.144-.048-5.28l.048-5.112.36-.048q.096-.024.384-.048a3 3 0 0 1 .408-.048m-8.112 1.32q.072-.096.144-.072.096 0 .624.12.672.144.792.264.12.096.12.552 0 .408.096.72.12.312.48.936.504.792 1.008 1.776.768 1.536 1.128 2.064.24.36.216.48 0 .12-.24.288-.24.144-.576.528-.288.336-.408.312t-.432-.528a126 126 0 0 1-.936-1.512q-.6-.936-1.008-1.728-.528-1.032-.528-.48 0 .096-.048.168-.216.24-.624 1.704a3 3 0 0 1-.144.408q-.12.312-.144.408a8.4 8.4 0 0 1-.504 1.272q-.264.552-.384.552-.048 0-.744-.36-.648-.336-.744-.336-.288 0-.12-.504.096-.312.288-.744l.264-.648q.144-.336.288-.696.12-.288.12-.312 0-.048.384-.864.12-.288.312-.72.336-.84.96-2.232.216-.48.216-.528.072-.192.144-.288m4.824 11.088q.096-.096.576-.048.48.024.6.12.168.12.216.12.504 0 1.2 1.08.72 1.056.792 1.92.072.936-.624 1.944a4.76 4.76 0 0 1-1.776 1.56q-.336.168-1.104.144-.744-.024-1.224-.216a6 6 0 0 1-.84-.456q-.984-.696-1.272-2.184-.24-1.152.768-2.448 1.032-1.296 2.28-1.464.384-.024.408-.072m.768 2.256q-.216-.24-.384-.288-.144-.048-.408.048-.12.048-.432.12-.552.168-.84.72-.264.528-.12 1.104.168.552.696.768a.95.95 0 0 0 .432.096q.24 0 .288-.072.048-.048.144-.048.12 0 .384-.216.264-.192.36-.36.672-1.056-.12-1.872"/></svg>