<svg xmlns="http://www.w3.org/2000/svg" width="233" height="293" fill="none" viewBox="0 0 233 293"><path fill="#ffa83f" d="m103.274 4.67-.015.02-.071.1a21 21 0 0 0-1.038 1.616q-.41.668-.717 1.393c-.133.313-.173.48-.189.537v.02c.059.462.217.904.463 1.294.382.694.906 1.419 1.567 2.32l.051.063c.6.824 1.323 1.81 1.882 2.832.57 1.043 1.119 2.373 1.119 3.885 0 .98-.33 1.92-.605 2.576q-.442 1.051-1.028 2.024a26 26 0 0 1-1.287 1.992l-.091.13-.026.042-.01.01a2.53 2.53 0 0 1-1.674 1.02 2.5 2.5 0 0 1-1.887-.493 2.62 2.62 0 0 1-.994-1.716 2.66 2.66 0 0 1 .48-1.934l.016-.021.071-.1q.555-.782 1.038-1.616.41-.668.717-1.392c.132-.313.173-.48.188-.537a3.2 3.2 0 0 0-.458-1.314 21 21 0 0 0-1.572-2.321l-.05-.063a26 26 0 0 1-1.882-2.831 8.1 8.1 0 0 1-1.12-3.886c0-.98.331-1.919.606-2.576.3-.72.681-1.429 1.027-2.023q.607-1.02 1.287-1.992l.127-.183a2.53 2.53 0 0 1 1.674-1.02 2.5 2.5 0 0 1 1.887.493c.541.415.898 1.032.995 1.717a2.66 2.66 0 0 1-.481 1.934m15.261 0-.015.02-.072.1q-.555.783-1.037 1.616-.41.668-.718 1.393c-.132.313-.172.48-.188.537v.02c.059.462.217.904.463 1.294.382.694.906 1.419 1.567 2.32l.051.063c.6.824 1.322 1.81 1.882 2.832.57 1.043 1.119 2.373 1.119 3.885 0 .98-.331 1.92-.605 2.576q-.442 1.051-1.028 2.024a26 26 0 0 1-1.287 1.992l-.091.13-.026.042-.01.01a2.53 2.53 0 0 1-1.674 1.02 2.5 2.5 0 0 1-1.887-.493 2.654 2.654 0 0 1-.514-3.65l.016-.021.071-.1q.555-.782 1.038-1.616.41-.668.717-1.392c.132-.313.173-.48.188-.537a3.2 3.2 0 0 0-.458-1.314 21 21 0 0 0-1.572-2.321l-.05-.063a26 26 0 0 1-1.883-2.831 8.1 8.1 0 0 1-1.119-3.886c0-.98.331-1.919.606-2.576.3-.72.681-1.429 1.027-2.023q.607-1.02 1.287-1.992l.127-.183a2.54 2.54 0 0 1 1.674-1.02 2.5 2.5 0 0 1 1.887.493c.541.415.898 1.032.995 1.717a2.66 2.66 0 0 1-.481 1.934m15.261 0-.015.02-.072.1q-.555.783-1.037 1.616-.41.668-.718 1.393c-.132.313-.173.48-.188.537v.02c.059.462.217.904.463 1.294.382.694.906 1.419 1.567 2.32l.051.063c.6.824 1.322 1.81 1.882 2.832.57 1.043 1.119 2.373 1.119 3.885 0 .98-.331 1.92-.605 2.576q-.442 1.051-1.028 2.024a26 26 0 0 1-1.282 1.992l-.096.13-.026.042-.01.01a2.53 2.53 0 0 1-1.674 1.02 2.5 2.5 0 0 1-1.887-.493 2.654 2.654 0 0 1-.514-3.65l.016-.021.071-.1q.555-.782 1.037-1.616.41-.668.718-1.392c.132-.313.173-.48.188-.537a3.2 3.2 0 0 0-.458-1.314 21 21 0 0 0-1.572-2.321l-.051-.063a26 26 0 0 1-1.882-2.831 8.1 8.1 0 0 1-1.119-3.886c0-.98.331-1.919.605-2.576.301-.72.682-1.429 1.028-2.023q.606-1.02 1.287-1.992l.127-.183a2.53 2.53 0 0 1 1.674-1.02 2.5 2.5 0 0 1 1.887.493 2.654 2.654 0 0 1 .514 3.65M152.359 66.414a14.26 14.26 0 0 0-7.171-11.953 14.58 14.58 0 0 0-14.464-12.47 16 16 0 0 0-3.984.517 14.744 14.744 0 0 0-20.36 0 16 16 0 0 0-3.985-.518 14.58 14.58 0 0 0-14.543 12.471 14.26 14.26 0 0 0-7.211 11.953 3.985 3.985 0 0 0-3.985 3.985 39.84 39.84 0 0 0 19.922 34.504v5.339a3.985 3.985 0 0 0 3.984 3.985h31.876a3.985 3.985 0 0 0 3.984-3.985v-5.339a39.84 39.84 0 0 0 19.922-34.504 3.985 3.985 0 0 0-3.985-3.985m-63.75 0a6.335 6.335 0 0 1 4.423-5.538l3.307-1.036-.637-3.387A6.535 6.535 0 0 1 102.316 50a7.2 7.2 0 0 1 3.307.796l3.227 1.794 1.992-3.068a6.81 6.81 0 0 1 8.864-2.216 6.8 6.8 0 0 1 2.452 2.215l1.992 3.069 3.227-1.794a7.2 7.2 0 0 1 3.307-.796 6.57 6.57 0 0 1 6.654 6.375l-.637 3.386 3.267 1.116a6.34 6.34 0 0 1 4.423 5.538z"/><path fill="#252525" d="M18.156 176.973h-2.988v-15.926h2.988zm2.883-6.949h-3.75v-2.449h3.75zm-7.149-4.395H1.222v-2.355H13.89zm-6.316.75q1.523 0 2.719.528 1.195.515 1.863 1.453.668.937.668 2.156 0 1.208-.668 2.133-.669.914-1.864 1.429-1.195.516-2.718.516-1.547 0-2.754-.516-1.207-.515-1.875-1.429-.668-.925-.668-2.133 0-1.219.668-2.156t1.875-1.453q1.207-.528 2.754-.528m0 2.297q-.716 0-1.266.211-.54.212-.832.633a1.7 1.7 0 0 0-.293.996q0 .575.293.984.293.399.832.61.551.21 1.266.211.714 0 1.254-.211.55-.211.855-.61.305-.41.305-.984t-.305-.996a1.83 1.83 0 0 0-.855-.633q-.54-.211-1.254-.211m1.488-4.242H6.074v-3.422h2.988zm9.856 17.555H4.316v-2.414h14.602zm-11.614-1.383H4.316v-4.863h2.988zm35.355-15.211h-13.64v-2.414h13.64zm3.809 14.144H27.015v-2.425h19.453zm-2.403-14.003a99 99 0 0 1-.047 3.351q-.035 1.336-.199 3.082a45 45 0 0 1-.515 3.82l-3.036-.246q.387-1.922.563-3.632t.21-3.083q.036-1.382.036-3.292v-2.555h2.988zm22.904 8.777h-19.5v-2.356h19.5zm-2.355-7.055H52.872v2.332h-2.977v-4.453h11.719v-1.277H49.86v-2.309h14.754zm.398 3.563H49.895v-2.297h15.117zm-6.715 4.84q0 1.757-.996 3.152-.984 1.383-2.883 2.262-1.898.89-4.593 1.183l-.973-2.25q2.297-.234 3.844-.855 1.547-.633 2.285-1.524.75-.902.75-1.968v-.329h2.566zm.457 0q0 1.066.75 1.968.762.891 2.309 1.524 1.559.621 3.832.855l-.96 2.25q-2.684-.293-4.595-1.183-1.91-.879-2.918-2.262-.996-1.395-.996-3.152v-.329h2.578zm21.38-4.36h-3.562v-2.39h3.563zm6.317 11.051h-2.87V161h2.87zm-4.441-.984h-2.824v-20.04h2.824zm-9.223-18.832q1.419 0 2.485.937 1.065.926 1.64 2.672.585 1.746.586 4.113 0 2.356-.586 4.113-.575 1.747-1.64 2.696a3.7 3.7 0 0 1-2.485.949 3.64 3.64 0 0 1-2.46-.949q-1.056-.949-1.63-2.696-.562-1.757-.562-4.113 0-2.379.562-4.113.574-1.746 1.63-2.672a3.62 3.62 0 0 1 2.46-.937m0 2.835q-.61-.011-1.031.54-.422.55-.644 1.64-.211 1.09-.211 2.707 0 1.606.21 2.707.224 1.102.645 1.641.434.539 1.031.539.621 0 1.055-.539.434-.54.668-1.641.234-1.102.234-2.707 0-1.617-.234-2.707t-.668-1.64q-.434-.551-1.055-.54M110.65 173h-2.988v-12h2.988zm2.883-4.711h-3.727v-2.461h3.727zm-17.192 1.524q3.599.012 5.625-.129 2.04-.141 3.938-.527l.328 2.355q-1.313.293-2.672.445-1.347.141-2.965.188t-4.254.047h-1.793v-2.379zm7.735-5.063h-6.54v6.469h-2.988v-8.859h9.528zm6.574 17.356H96.705v-8.215h13.945zm-10.98-2.356h8.027v-3.492h-8.028zm32.349-3.211h-3.012v-15.492h3.012zm-6.211-13.945q0 2.883-1.184 5.18t-3.445 3.949q-2.262 1.653-5.496 2.602l-1.172-2.391q2.625-.75 4.441-1.934 1.828-1.196 2.754-2.718a6.27 6.27 0 0 0 .926-3.293v-1.395zm-1.313 2.449h-8.765v-2.449h8.765zm7.969 16.946h-14.707v-2.414h14.707zm-11.719-1.477h-2.988v-5.332h2.988zm38.718-5.133h-19.5v-2.437h19.5zm-8.332 6.996h-2.964v-7.886h2.964zm-1.476-20.648q2.285 0 4.043.598 1.77.585 2.742 1.687.984 1.09.984 2.566 0 1.419-.984 2.497-.973 1.077-2.742 1.664-1.758.585-4.043.586-2.273 0-4.043-.586-1.758-.587-2.731-1.664-.972-1.078-.972-2.497 0-1.476.972-2.566.973-1.102 2.731-1.687 1.77-.598 4.043-.598m0 2.391q-1.43 0-2.485.281t-1.617.844a1.82 1.82 0 0 0-.551 1.335q0 .75.551 1.29.563.538 1.617.82 1.056.27 2.485.281 1.453-.012 2.508-.281 1.055-.282 1.617-.82.562-.54.562-1.29 0-.785-.562-1.335-.562-.563-1.629-.844-1.054-.281-2.496-.281m28.681 18.293h-2.988V161h2.988zm-14.824-7.465q3 .011 5.414-.141a54 54 0 0 0 4.898-.562l.27 2.414a46 46 0 0 1-4.91.597 92 92 0 0 1-5.672.153h-1.91v-2.461zm8.203-3.926h-7.031v4.863h-3.082v-7.207h7.066v-3.457h-7.09v-2.414h10.137zm34.007 2.437h-19.488v-2.367h19.488zm-8.285-1.429h-2.93v-4.149h2.93zm6.059-2.766h-14.907v-2.344h14.907zm-.118-4.969h-11.824v4.16h-2.965v-6.492h14.789zm-7.453 10.219q2.32 0 3.985.457 1.675.457 2.554 1.348.891.89.891 2.144a2.87 2.87 0 0 1-.891 2.121q-.879.88-2.554 1.336-1.665.457-3.985.469-2.32-.012-4.008-.469-1.675-.457-2.578-1.336a2.87 2.87 0 0 1-.89-2.121q0-1.254.89-2.144.903-.89 2.578-1.348 1.677-.457 4.008-.457m0 2.285q-1.476 0-2.461.188-.984.176-1.476.551t-.492.925q0 .563.492.926t1.465.539q.984.176 2.472.176 1.477 0 2.45-.176.984-.176 1.476-.539.492-.375.492-.926 0-.55-.492-.925t-1.488-.551q-.984-.188-2.438-.188m14.584-1.324h-2.988v-12.422h2.988zm-1.512-.785a47 47 0 0 0 3.856-.117 25 25 0 0 0 3.433-.516l.41 2.531a27 27 0 0 1-3.621.539 54 54 0 0 1-4.078.118h-1.476v-2.555zm16.184 7.664h-2.813V161h2.813zm-6.727-12.164h-4.933v-2.402h4.933zm2.168 11.226h-2.824v-20.003h2.824zm9.029 3.727h-2.484l1.16-6.668h3.352z"/><path fill="#ffa83f" d="M52.57 211.924q5.568-1.409 8.128 6.208.704 2.175.448 3.52-.192 1.344-1.728 4.096-1.665 2.943-4.544 4.096-2.816 1.151-5.44.512-2.625-.64-4.544-2.944-1.92-2.304-1.92-5.632 0-2.176.192-2.752.768-2.496 2.816-4.288a10.4 10.4 0 0 1 4.736-2.368 43 43 0 0 1 1.856-.448m1.472 5.824q-1.152-.513-3.136.128-1.92.639-2.688 1.728-.768 1.152 0 3.072.831 1.855 2.24 2.176 1.92.448 3.52-1.088 1.665-1.536 1.664-3.264 0-1.792-1.6-2.752m-2.944 13.504q2.496-.705 3.328.192.32.32.32.832.064.447.064 2.816 0 3.135.128 3.968l.064.704 6.208-.064q6.144-.064 6.272.128.127.192.064 2.496-.065 2.24-.192 2.368-.321.32-13.056.704-12.735.32-15.424.128-2.049-.129-2.304-.384-.256-.256-.32-2.176v-.576q-.064-1.28.576-1.472.704-.257 4.672-.384a31 31 0 0 1 1.728-.064q5.887-.192 6.016-.192.255-.065.512-6.848.064-1.28.256-1.6.192-.384 1.088-.576m-5.76 18.624q.255 0 .768-.064 1.6-.129 1.856.384.32.447.384 3.52v1.408q.127 4.992.256 5.44.063.32.896.384.831.063 5.76-.064 6.272-.065 7.232-.128.96-.129 1.088.512.128.704-.192 3.648v.128q-.129.831-1.408.96-1.215.128-8.64.128H43.034l-.192-1.088q-.256-1.025-.32-7.808 0-6.849.192-7.04.255-.192 2.624-.32m57.218-27.264q1.537-.32 1.984-.256.513.063.64.512.32 1.728.512 16.448.192 14.655-.128 15.872-.064.384-.448.448h-2.432q-2.175 0-2.496-.064-.32-.065-.256-.576 0-.64.064-15.936.129-15.744.192-15.936.129-.065.64-.192a78 78 0 0 1 1.728-.32m-24.128 5.952q.129-.129 5.12 0 5.056.063 5.248.192.129.192-.064 1.792-.127 1.6-.384 2.432-.255.96-.384 2.176a67 67 0 0 1-.384 2.112q-.191.832-.32 2.752-.704 9.536-1.152 10.56-.128.255-.512.32-.32.063-2.176 0-2.431-.129-2.688-.32-.255-.256-.064-1.984.769-6.016 1.216-12.48l.064-1.6-5.056-.064q-.384 0-1.216-.064-4.224-.065-4.928-.384-.704-.384-.64-2.496 0-.384.064-.576v-2.048l4.096-.064q4.032-.129 4.16-.256m61.334-15.744q1.217-.129 1.472-.064.257 0 .32.256.512 1.343.512 7.04v.768q0 2.304.128 2.688.192.32 1.216.32h.32q1.6 0 4.736.128 2.817.063 3.328.256.513.127.384.96-.127.511-.256 1.792v.448q-.127 1.215-.64 1.408-.447.192-3.264.192h-2.56q-.96 0-1.28-.064-.32-.065-.896.064-.575.128-.704.128-.063-.065-.384.256-.32.32-.32.448 0 .063-.128.704a9 9 0 0 0-.064.896q.064.255.064 1.216v2.944q0 3.264-.256 3.84-.191.512-1.664.576-.384 0-.576.064-.384 0-.96.064-1.152.192-1.408-.384-.447-1.025-.256-10.88 0-3.648.064-5.888l.128-9.792 1.024-.128a72 72 0 0 0 1.92-.256m-14.4 3.008a10.2 10.2 0 0 1 2.816-.128q1.473.063 1.6.32.192.384.256 3.072.065 2.688-.064 4.48-.255 2.495-.384 7.808v.96q-.127 3.776-.256 4.416-.128.64-.96.832a.5.5 0 0 1-.192.064q-1.664.447-8.576.512-6.847.063-7.296-.32-.447-.32-.576-1.664-.128-1.409-.128-5.312 0-4.928-.128-7.232a30 30 0 0 1-.128-1.408q-.32-4.353-.064-5.056.32-.705 2.24-.768h.576q1.857-.129 2.112.256.257.384.384 3.072.129 2.496.128 2.56.065.063 2.816 0 2.817-.065 3.648-.128l1.408-.192.064-3.072v-3.008zm-.96 14.016.064-2.496h-2.496q-2.496 0-3.648.192l-1.216.128v4.672a.454.454 0 0 0 .384.384q.384.128 3.456 0 3.137-.192 3.264-.32.129-.129.192-2.56m10.88 15.104q3.072-.384 3.904.576.32.447.128 9.216t-.576 9.6q-.32.512-1.664.576-1.28.128-7.744.128l-8.128.064-.128-.64q-.32-1.153-.512-9.664-.192-8.577.128-8.704.192-.065 1.856-.32 1.729-.256 2.176-.256.32 0 .448.448.129.384.256 1.984.129 1.92.256 2.112.193.128 4.48 0l4.288-.128v-2.24q0-1.92.064-2.304.129-.385.768-.448m-1.536 12.928q.065-1.92-.192-2.112-.192-.256-3.264-.256h-.896q-2.56 0-3.008.256-.383.192-.32 1.536v.96q.065 1.472.384 1.664.384.255 2.432.192h.704q.32 0 .832-.064 2.433-.065 2.816-.32.449-.192.512-1.472zm50.713-44.672q1.344-.192 1.536 0 .255.128.384 1.472.576 4.351.576 7.936 0 1.663.064 1.984.063.256.512.256.96 0 4.288.192 3.327.128 3.968.192.831.127.896.448.128.32-.064 1.856v.448q-.129.767-.192 1.088 0 .255-.256.64-.257.384-.384.448-.129.063-.832.192-.704.064-1.28.064-.513 0-1.856-.064h-.704q-4.16-.129-4.288-.064-.129.063-.256 3.84-.192 7.104-.576 7.296-.64.256-2.56.256-1.856-.064-2.048-.384-.257-.385-.128-14.08l.128-13.632.96-.128q.255-.065 1.024-.128.768-.128 1.088-.128m-21.632 3.52q.192-.257.384-.192.255 0 1.664.32 1.791.384 2.112.704.32.255.32 1.472 0 1.088.256 1.92.32.831 1.28 2.496a59 59 0 0 1 2.688 4.736q2.048 4.095 3.008 5.504.639.96.576 1.28 0 .32-.64.768-.64.384-1.536 1.408-.768.895-1.088.832t-1.152-1.408a336 336 0 0 1-2.496-4.032q-1.6-2.496-2.688-4.608-1.408-2.753-1.408-1.28 0 .256-.128.448-.576.64-1.664 4.544-.257.831-.384 1.088-.321.831-.384 1.088a22.5 22.5 0 0 1-1.344 3.392q-.705 1.472-1.024 1.472-.129 0-1.984-.96-1.728-.897-1.984-.896-.768 0-.32-1.344.255-.832.768-1.984.128-.321.704-1.728.384-.897.768-1.856.32-.768.32-.832 0-.129 1.024-2.304.32-.768.832-1.92.895-2.241 2.56-5.952.576-1.28.576-1.408.192-.513.384-.768m12.864 29.568q.255-.257 1.536-.128 1.28.063 1.6.32.447.32.576.32 1.343 0 3.2 2.88 1.92 2.816 2.112 5.12.192 2.496-1.664 5.184a12.7 12.7 0 0 1-4.736 4.16q-.897.447-2.944.384-1.984-.065-3.264-.576a16.4 16.4 0 0 1-2.24-1.216q-2.624-1.857-3.392-5.824-.64-3.072 2.048-6.528 2.751-3.457 6.08-3.904 1.023-.065 1.088-.192m2.048 6.016q-.577-.64-1.024-.768-.384-.129-1.088.128-.321.128-1.152.32-1.472.447-2.24 1.92a4.14 4.14 0 0 0-.32 2.944q.447 1.472 1.856 2.048.512.255 1.152.256.639 0 .768-.192.127-.128.384-.128.32 0 1.024-.576.704-.513.96-.96 1.792-2.817-.32-4.992"/></svg>