<svg xmlns="http://www.w3.org/2000/svg" width="38" height="38" fill="none" viewBox="0 0 38 38"><path fill="#fff" d="M7.309 28.5q-1.094 0-1.826-.732-.732-.73-.733-1.827V12.06q0-1.094.733-1.826.734-.732 1.824-.733h23.386q1.092 0 1.824.733t.733 1.826v13.884q0 1.093-.733 1.825-.733.734-1.824.732zm0-1.583h23.384q.364 0 .67-.304.305-.305.304-.672V12.06q0-.366-.304-.672-.304-.305-.67-.304H7.307q-.364 0-.67.304-.305.304-.304.672v13.884q0 .364.304.67.304.305.67.304m5.725-1.948h11.936v-2.438H13.032zm-4.75-4.75h2.436v-2.438H8.282zm4.75 0h2.436v-2.438h-2.436zm4.75 0h2.436v-2.438h-2.436zm4.75 0h2.436v-2.438h-2.436zm4.75 0h2.436v-2.438h-2.436zm-19-4.75h2.436v-2.438H8.282zm4.75 0h2.436v-2.438h-2.436zm4.75 0h2.436v-2.438h-2.436zm4.75 0h2.436v-2.438h-2.436zm4.75 0h2.436v-2.438h-2.436z"/></svg>