<svg xmlns="http://www.w3.org/2000/svg" width="28" height="28" fill="none" viewBox="0 0 28 28"><path fill="#fff" d="M23.281 2.188a7.594 7.594 0 0 0-7.593 7.593v2.531A1.687 1.687 0 0 0 17.375 14h1.593l-.034.322c-.077.763-.184 1.792-.29 2.87-.208 2.117-.425 4.493-.425 5.246a3.375 3.375 0 1 0 6.75 0c0-.753-.218-3.13-.425-5.249a515 515 0 0 0-.389-3.78l-.03-.298V3.03a.844.844 0 0 0-.844-.844M11.845 2.279a.85.85 0 0 1 .447.565c.03.133.864 3.7.864 6.094a5.05 5.05 0 0 1-1.907 3.958c-.421.338-.624.706-.624 1.013v.82q0 .06.007.111c.057.419.265 1.973.459 3.585.19 1.58.378 3.305.378 4.012a3.375 3.375 0 1 1-6.75 0c0-.708.187-2.43.378-4.012.194-1.612.401-3.166.459-3.585l.006-.111v-.82c0-.307-.202-.675-.624-1.013a5.06 5.06 0 0 1-1.907-3.959c0-2.384.827-5.933.864-6.091a.85.85 0 0 1 .832-.659c.473 0 .856.384.856.856v5.06a.835.835 0 1 0 1.667-.01V3.032a.844.844 0 0 1 1.688 0v5.107a.835.835 0 1 0 1.67-.036V3.04a.852.852 0 0 1 1.237-.761"/></svg>