<svg xmlns="http://www.w3.org/2000/svg" width="58" height="58" fill="none" viewBox="0 0 58 58"><path fill="#252525" d="M18.125 10.875a10.875 10.875 0 0 1 21.75 0V29a10.875 10.875 0 0 1-21.75 0z"/><path fill="#252525" d="M12.688 23.563a1.81 1.81 0 0 1 1.812 1.812V29a14.5 14.5 0 0 0 29 0v-3.625a1.812 1.812 0 0 1 3.625 0V29a18.125 18.125 0 0 1-16.312 18.034v7.341h10.875a1.812 1.812 0 0 1 0 3.625H16.311a1.812 1.812 0 0 1 0-3.625h10.875v-7.34A18.125 18.125 0 0 1 10.875 29v-3.625a1.81 1.81 0 0 1 1.813-1.812"/></svg>