<svg width="36" height="36" viewBox="0 0 36 36" fill="none" xmlns="http://www.w3.org/2000/svg">
<rect x="0.416504" y="0.5" width="35" height="35" rx="17.5" fill="url(#paint0_linear_942_13091)"/>
<path d="M11.4165 13.5H12.9165" stroke="#802A35" stroke-width="1.5" stroke-linecap="round"/>
<path d="M23.1665 13.5H24.6665" stroke="#802A35" stroke-width="1.5" stroke-linecap="round"/>
<path d="M22.603 21.5C22.879 21.4998 23.103 21.276 23.103 21V20.9795C23.1028 20.9697 23.1018 20.9567 23.1011 20.9414C23.0995 20.9106 23.0968 20.8684 23.0913 20.8174C23.0802 20.7152 23.0582 20.5743 23.0161 20.4082C22.932 20.0765 22.7641 19.6365 22.4302 19.1973C21.7451 18.2965 20.4412 17.5001 18.0415 17.5C15.6414 17.5 14.3368 18.2963 13.6519 19.1973C13.318 19.6365 13.151 20.0765 13.0669 20.4082C13.0248 20.5743 13.0028 20.7152 12.9917 20.8174C12.9862 20.8684 12.9835 20.9105 12.9819 20.9414C12.9812 20.9567 12.9802 20.9697 12.98 20.9795V21C12.98 21.2761 13.2039 21.5 13.48 21.5H22.603Z" fill="url(#paint1_linear_942_13091)"/>
<defs>
<linearGradient id="paint0_linear_942_13091" x1="17.9165" y1="0.5" x2="17.9165" y2="35.5" gradientUnits="userSpaceOnUse">
<stop stop-color="#FFA6A6"/>
<stop offset="1" stop-color="#E23B51"/>
</linearGradient>
<linearGradient id="paint1_linear_942_13091" x1="18.0415" y1="21.5" x2="18.0415" y2="17.5" gradientUnits="userSpaceOnUse">
<stop stop-color="#AE3545"/>
<stop offset="1" stop-color="#802A35"/>
</linearGradient>
</defs>
</svg>
