<svg width="20" height="14" viewBox="0 0 20 14" fill="none" xmlns="http://www.w3.org/2000/svg">
<path d="M16.2812 11.7344C16.4688 11.9219 16.7031 12.0156 16.9844 12.0156C17.2656 12.0156 17.5 11.9219 17.6875 11.7344C17.9062 11.5156 18.0156 11.2656 18.0156 10.9844C18.0156 10.7031 17.9062 10.4688 17.6875 10.2812C17.5 10.0938 17.2656 10 16.9844 10C16.7031 10 16.4688 10.0938 16.2812 10.2812C16.0938 10.4688 16 10.7031 16 10.9844C16 11.2656 16.0938 11.5156 16.2812 11.7344ZM14.875 8.875C15.4688 8.28125 16.1719 7.98438 16.9844 7.98438C17.7969 7.98438 18.5 8.28125 19.0938 8.875C19.6875 9.46875 19.9844 10.1719 19.9844 10.9844C19.9844 11.7969 19.6875 12.5 19.0938 13.0938C18.5 13.6875 17.7969 13.9844 16.9844 13.9844C16.1719 13.9844 15.4688 13.6875 14.875 13.0938C14.2812 12.5 13.9844 11.7969 13.9844 10.9844C13.9844 10.1719 14.2812 9.46875 14.875 8.875ZM3.01562 1H7.98438V3.01562H3.01562V1ZM4.28125 11.7344C4.46875 11.9219 4.70312 12.0156 4.98438 12.0156C5.26562 12.0156 5.5 11.9219 5.6875 11.7344C5.90625 11.5156 6.01562 11.2656 6.01562 10.9844H4C4 11.2656 4.09375 11.5156 4.28125 11.7344ZM16.9844 1.98438V5.35938L12.4844 10.9844H7.98438C7.98438 11.7969 7.6875 12.5 7.09375 13.0938C6.5 13.6875 5.79688 13.9844 4.98438 13.9844C4.17188 13.9844 3.46875 13.6875 2.875 13.0938C2.28125 12.5 1.98438 11.7969 1.98438 10.9844H0.015625V7.98438C0.015625 6.89062 0.40625 5.95312 1.1875 5.17188C1.96875 4.39062 2.90625 4 4 4H7.98438V9.01562H11.5L15.0156 4.65625V1.98438H12.0156V0.015625H15.0156C15.5469 0.015625 16 0.21875 16.375 0.625C16.7812 1 16.9844 1.45312 16.9844 1.98438Z" fill="#818181"/>
</svg>
