<svg width="96" height="122" viewBox="0 0 96 122" fill="none" xmlns="http://www.w3.org/2000/svg">
<path d="M34.5863 4.1699L34.5711 4.19075L34.4999 4.28984C34.1297 4.81197 33.7835 5.35143 33.4621 5.90648C33.1892 6.35142 32.9494 6.81687 32.7449 7.29887C32.6126 7.61177 32.5719 7.77865 32.5566 7.83601V7.85687C32.6153 8.31788 32.7734 8.75969 33.0196 9.15018C33.4011 9.84377 33.925 10.5687 34.5863 11.4708L34.6372 11.5334C35.2375 12.3574 35.9598 13.343 36.5194 14.3651C37.0891 15.4081 37.6385 16.7379 37.6385 18.2503C37.6385 19.2307 37.3079 20.1694 37.0332 20.8265C36.7391 21.5257 36.3957 22.2019 36.0056 22.8499C35.6065 23.5337 35.1771 24.1985 34.7186 24.842L34.627 24.9724L34.6016 25.0141L34.5914 25.0245C34.1874 25.5784 33.5852 25.9451 32.9174 26.0439C32.2496 26.1427 31.5709 25.9655 31.0306 25.5512C30.4902 25.137 30.1325 24.5197 30.0362 23.8351C29.9398 23.1505 30.1127 22.4547 30.5168 21.9008L30.532 21.8799L30.6033 21.7808C30.9734 21.2587 31.3197 20.7192 31.641 20.1642C31.914 19.7192 32.1537 19.2538 32.3583 18.7718C32.4905 18.4589 32.5312 18.292 32.5465 18.2346C32.4923 17.7668 32.3358 17.3176 32.0886 16.9205C31.6164 16.1114 31.0913 15.3361 30.5168 14.5998L30.4659 14.5372C29.7786 13.6367 29.1499 12.6907 28.5837 11.7055C27.8909 10.5307 27.5054 9.19255 27.4646 7.82037C27.4646 6.83995 27.7953 5.90126 28.0699 5.24418C28.3701 4.52451 28.7516 3.81528 29.0975 3.22077C29.5016 2.54018 29.9309 1.87566 30.3845 1.22866L30.5117 1.04613C30.9158 0.492205 31.5179 0.125519 32.1857 0.0267413C32.8535 -0.0720362 33.5322 0.105187 34.0726 0.519423C34.6129 0.93366 34.9706 1.55098 35.0669 2.23557C35.1633 2.92017 34.9904 3.61597 34.5863 4.1699ZM49.8472 4.1699L49.8319 4.19075L49.7607 4.28984C49.3906 4.81197 49.0443 5.35143 48.723 5.90648C48.45 6.35142 48.2103 6.81687 48.0057 7.29887C47.8735 7.61177 47.8328 7.77865 47.8175 7.83601V7.85687C47.8762 8.31788 48.0343 8.75969 48.2804 9.15018C48.6619 9.84377 49.1859 10.5687 49.8472 11.4708L49.8981 11.5334C50.4983 12.3574 51.2207 13.343 51.7803 14.3651C52.35 15.4081 52.8994 16.7379 52.8994 18.2503C52.8994 19.2307 52.5687 20.1694 52.294 20.8265C52 21.5257 51.6566 22.2019 51.2665 22.8499C50.8674 23.5337 50.4379 24.1985 49.9795 24.842L49.8879 24.9724L49.8625 25.0141L49.8523 25.0245C49.4482 25.5784 48.8461 25.9451 48.1783 26.0439C47.5105 26.1427 46.8318 25.9655 46.2914 25.5512C45.7511 25.137 45.3934 24.5197 45.2971 23.8351C45.2007 23.1505 45.3736 22.4547 45.7776 21.9008L45.7929 21.8799L45.8641 21.7808C46.2342 21.2587 46.5805 20.7192 46.9019 20.1642C47.1748 19.7192 47.4146 19.2538 47.6191 18.7718C47.7514 18.4589 47.7921 18.292 47.8073 18.2346C47.7532 17.7668 47.5967 17.3176 47.3495 16.9205C46.8773 16.1114 46.3522 15.3361 45.7776 14.5998L45.7268 14.5372C45.0395 13.6367 44.4107 12.6907 43.8446 11.7055C43.1517 10.5307 42.7663 9.19255 42.7255 7.82037C42.7255 6.83995 43.0561 5.90126 43.3308 5.24418C43.6309 4.52451 44.0125 3.81528 44.3584 3.22077C44.7625 2.54018 45.1918 1.87566 45.6454 1.22866L45.7726 1.04613C46.1766 0.492205 46.7788 0.125519 47.4466 0.0267412C48.1144 -0.0720362 48.7931 0.105187 49.3334 0.519423C49.8738 0.93366 50.2314 1.55098 50.3278 2.23557C50.4242 2.92017 50.2513 3.61597 49.8472 4.1699ZM65.1081 4.1699L65.0928 4.19075L65.0216 4.28984C64.6515 4.81197 64.3052 5.35143 63.9839 5.90648C63.7109 6.35142 63.4711 6.81687 63.2666 7.29887C63.1343 7.61177 63.0936 7.77865 63.0784 7.83601V7.85687C63.1371 8.31788 63.2952 8.75969 63.5413 9.15018C63.9228 9.84377 64.4468 10.5687 65.1081 11.4708L65.1589 11.5334C65.7592 12.3574 66.4816 13.343 67.0411 14.3651C67.6109 15.4081 68.1603 16.7379 68.1603 18.2503C68.1603 19.2307 67.8296 20.1694 67.5549 20.8265C67.2609 21.5257 66.9174 22.2019 66.5273 22.8499C66.1299 23.5336 65.7022 24.1984 65.2454 24.842L65.1488 24.9724L65.1233 25.0141L65.1132 25.0245C64.7091 25.5784 64.1069 25.9451 63.4391 26.0439C62.7713 26.1427 62.0926 25.9655 61.5523 25.5512C61.012 25.137 60.6543 24.5197 60.5579 23.8351C60.4616 23.1505 60.6344 22.4547 61.0385 21.9008L61.0538 21.8799L61.125 21.7808C61.4951 21.2587 61.8414 20.7192 62.1627 20.1642C62.4357 19.7192 62.6755 19.2538 62.88 18.7718C63.0123 18.4589 63.0529 18.292 63.0682 18.2346C63.014 17.7668 62.8575 17.3176 62.6104 16.9205C62.1382 16.1114 61.613 15.3361 61.0385 14.5998L60.9876 14.5372C60.3004 13.6367 59.6716 12.6907 59.1055 11.7055C58.4126 10.5307 58.0271 9.19255 57.9863 7.82037C57.9863 6.83995 58.317 5.90126 58.5917 5.24418C58.8918 4.52451 59.2733 3.81528 59.6193 3.22077C60.0234 2.54018 60.4527 1.87566 60.9063 1.22866L61.0334 1.04613C61.4375 0.492205 62.0397 0.125519 62.7075 0.0267412C63.3752 -0.0720362 64.054 0.105187 64.5943 0.519423C65.1346 0.93366 65.4923 1.55098 65.5887 2.23557C65.685 2.92017 65.5121 3.61597 65.1081 4.1699Z" fill="#FFA83F"/>
<path d="M83.6719 65.9145C83.5989 63.4749 82.9012 61.095 81.6455 59.0021C80.3898 56.9093 78.6182 55.1737 76.5 53.9613C75.9921 50.4907 74.2502 47.3194 71.5938 45.0289C68.9373 42.7383 65.5443 41.482 62.0367 41.4902C60.6921 41.4941 59.3533 41.6682 58.0523 42.0082C55.3098 39.3899 51.6639 37.929 47.8723 37.929C44.0806 37.929 40.4347 39.3899 37.6922 42.0082C36.3912 41.6682 35.0525 41.4941 33.7078 41.4902C30.1865 41.4628 26.7743 42.7104 24.1011 45.0027C21.428 47.2949 19.6747 50.4771 19.1648 53.9613C17.0392 55.1688 15.2596 56.9022 13.9968 58.9954C12.7339 61.0885 12.0302 63.4711 11.9531 65.9145C10.8964 65.9145 9.88296 66.3342 9.13575 67.0815C8.38853 67.8287 7.96875 68.8421 7.96875 69.8988C7.96893 76.8927 9.81004 83.7633 13.3071 89.8201C16.8041 95.877 21.8338 100.907 27.8906 104.404V109.743C27.8906 110.799 28.3104 111.813 29.0576 112.56C29.8048 113.307 30.8183 113.727 31.875 113.727H63.75C64.8067 113.727 65.8202 113.307 66.5674 112.56C67.3146 111.813 67.7344 110.799 67.7344 109.743V104.404C73.7912 100.907 78.8209 95.877 82.3179 89.8201C85.815 83.7633 87.6561 76.8927 87.6562 69.8988C87.6562 68.8421 87.2365 67.8287 86.4893 67.0815C85.742 66.3342 84.7286 65.9145 83.6719 65.9145ZM19.9219 65.9145C20.0231 64.6556 20.4982 63.4558 21.2863 62.469C22.0743 61.4821 23.1393 60.7534 24.3445 60.3762L27.6516 59.3402L27.0141 55.9535C27.0245 55.0954 27.2038 54.2477 27.5418 53.4589C27.8799 52.6701 28.37 51.9556 28.9841 51.3562C29.5983 50.7568 30.3246 50.2843 31.1214 49.9656C31.9182 49.6469 32.77 49.4883 33.6281 49.4988C34.7784 49.4954 35.9127 49.7687 36.9352 50.2957L40.1625 52.0887L42.1547 49.0207C42.7777 48.0921 43.6198 47.3311 44.6065 46.8049C45.5932 46.2787 46.6942 46.0035 47.8125 46.0035C48.9308 46.0035 50.0318 46.2787 51.0185 46.8049C52.0052 47.3311 52.8473 48.0921 53.4703 49.0207L55.4625 52.0887L58.6898 50.2957C59.7123 49.7687 60.8466 49.4954 61.9969 49.4988C63.7202 49.4772 65.3832 50.1331 66.6277 51.3254C67.8722 52.5178 68.5987 54.1511 68.6508 55.8738L68.0133 59.2606L71.2805 60.3762C72.4857 60.7534 73.5507 61.4821 74.3387 62.469C75.1268 63.4558 75.6019 64.6556 75.7031 65.9145H19.9219Z" fill="#FFA83F"/>
</svg>
