<svg width="393" height="54" viewBox="0 0 393 54" fill="none" xmlns="http://www.w3.org/2000/svg">
<path d="M159.183 16.9444L159.18 16.9481L159.168 16.9657C159.102 17.0583 159.041 17.154 158.984 17.2525C158.935 17.3314 158.893 17.414 158.856 17.4995C158.833 17.5551 158.826 17.5847 158.823 17.5948V17.5985C158.833 17.6803 158.861 17.7587 158.905 17.828C158.973 17.9511 159.066 18.0797 159.183 18.2397L159.192 18.2508C159.298 18.397 159.427 18.5719 159.526 18.7532C159.627 18.9383 159.724 19.1742 159.724 19.4425C159.724 19.6165 159.666 19.783 159.617 19.8996C159.565 20.0236 159.504 20.1436 159.435 20.2586C159.364 20.3799 159.288 20.4978 159.206 20.612L159.19 20.6351L159.186 20.6425L159.184 20.6444C159.112 20.7427 159.005 20.8077 158.887 20.8253C158.768 20.8428 158.648 20.8113 158.552 20.7378C158.456 20.6644 158.393 20.5548 158.376 20.4334C158.359 20.3119 158.389 20.1885 158.461 20.0902L158.464 20.0865L158.476 20.0689C158.542 19.9763 158.603 19.8806 158.66 19.7821C158.709 19.7031 158.751 19.6206 158.788 19.535C158.811 19.4795 158.818 19.4499 158.821 19.4397C158.811 19.3568 158.784 19.277 158.74 19.2066C158.656 19.063 158.563 18.9255 158.461 18.7949L158.452 18.7838C158.33 18.624 158.218 18.4562 158.118 18.2814C157.995 18.0729 157.927 17.8355 157.919 17.5921C157.919 17.4181 157.978 17.2516 158.027 17.135C158.08 17.0073 158.148 16.8815 158.209 16.776C158.281 16.6553 158.357 16.5374 158.437 16.4226L158.46 16.3902C158.532 16.2919 158.639 16.2269 158.757 16.2093C158.876 16.1918 158.996 16.2233 159.092 16.2967C159.188 16.3702 159.251 16.4798 159.268 16.6012C159.285 16.7227 159.255 16.8461 159.183 16.9444ZM161.891 16.9444L161.888 16.9481L161.875 16.9657C161.81 17.0583 161.748 17.154 161.691 17.2525C161.643 17.3314 161.6 17.414 161.564 17.4995C161.54 17.5551 161.533 17.5847 161.53 17.5948V17.5985C161.541 17.6803 161.569 17.7587 161.613 17.828C161.68 17.9511 161.773 18.0797 161.891 18.2397L161.9 18.2508C162.006 18.397 162.134 18.5719 162.233 18.7532C162.335 18.9383 162.432 19.1742 162.432 19.4425C162.432 19.6165 162.373 19.783 162.325 19.8996C162.272 20.0236 162.212 20.1436 162.142 20.2586C162.072 20.3799 161.995 20.4978 161.914 20.612L161.898 20.6351L161.893 20.6425L161.891 20.6444C161.82 20.7427 161.713 20.8077 161.594 20.8253C161.476 20.8428 161.356 20.8113 161.26 20.7378C161.164 20.6644 161.1 20.5548 161.083 20.4334C161.066 20.3119 161.097 20.1885 161.169 20.0902L161.171 20.0865L161.184 20.0689C161.25 19.9763 161.311 19.8806 161.368 19.7821C161.416 19.7031 161.459 19.6206 161.495 19.535C161.519 19.4795 161.526 19.4499 161.529 19.4397C161.519 19.3568 161.491 19.277 161.447 19.2066C161.364 19.063 161.27 18.9255 161.169 18.7949L161.159 18.7838C161.038 18.624 160.926 18.4562 160.826 18.2814C160.703 18.0729 160.634 17.8355 160.627 17.5921C160.627 17.4181 160.686 17.2516 160.734 17.135C160.788 17.0073 160.855 16.8815 160.917 16.776C160.988 16.6553 161.065 16.5374 161.145 16.4226L161.168 16.3902C161.239 16.2919 161.346 16.2269 161.465 16.2093C161.583 16.1918 161.703 16.2233 161.799 16.2967C161.895 16.3702 161.959 16.4798 161.976 16.6012C161.993 16.7227 161.962 16.8461 161.891 16.9444ZM164.598 16.9444L164.595 16.9481L164.583 16.9657C164.517 17.0583 164.456 17.154 164.399 17.2525C164.35 17.3314 164.308 17.414 164.271 17.4995C164.248 17.5551 164.241 17.5847 164.238 17.5948V17.5985C164.248 17.6803 164.276 17.7587 164.32 17.828C164.388 17.9511 164.481 18.0797 164.598 18.2397L164.607 18.2508C164.714 18.397 164.842 18.5719 164.941 18.7532C165.042 18.9383 165.14 19.1742 165.14 19.4425C165.14 19.6165 165.081 19.783 165.032 19.8996C164.98 20.0236 164.919 20.1436 164.85 20.2586C164.779 20.3799 164.703 20.4978 164.622 20.612L164.605 20.6351L164.601 20.6425L164.599 20.6444C164.527 20.7427 164.42 20.8077 164.302 20.8253C164.183 20.8428 164.063 20.8113 163.967 20.7378C163.871 20.6644 163.808 20.5548 163.791 20.4334C163.774 20.3119 163.804 20.1885 163.876 20.0902L163.879 20.0865L163.891 20.0689C163.957 19.9763 164.019 19.8806 164.076 19.7821C164.124 19.7031 164.166 19.6206 164.203 19.535C164.226 19.4795 164.233 19.4499 164.236 19.4397C164.227 19.3568 164.199 19.277 164.155 19.2066C164.071 19.063 163.978 18.9255 163.876 18.7949L163.867 18.7838C163.745 18.624 163.634 18.4562 163.533 18.2814C163.41 18.0729 163.342 17.8355 163.335 17.5921C163.335 17.4181 163.393 17.2516 163.442 17.135C163.495 17.0073 163.563 16.8815 163.624 16.776C163.696 16.6553 163.772 16.5374 163.853 16.4226L163.875 16.3902C163.947 16.2919 164.054 16.2269 164.172 16.2093C164.291 16.1918 164.411 16.2233 164.507 16.2967C164.603 16.3702 164.666 16.4798 164.683 16.6012C164.7 16.7227 164.67 16.8461 164.598 16.9444Z" fill="#424242"/>
<path d="M167.892 27.899C167.879 27.4662 167.755 27.0439 167.532 26.6726C167.309 26.3013 166.995 25.9934 166.619 25.7783C166.529 25.1625 166.22 24.5999 165.749 24.1935C165.277 23.7871 164.675 23.5642 164.053 23.5657C163.815 23.5664 163.577 23.5972 163.346 23.6576C162.86 23.193 162.213 22.9338 161.54 22.9338C160.867 22.9338 160.22 23.193 159.734 23.6576C159.503 23.5972 159.266 23.5664 159.027 23.5657C158.402 23.5608 157.797 23.7821 157.323 24.1888C156.848 24.5955 156.537 25.1601 156.447 25.7783C156.07 25.9925 155.754 26.3 155.53 26.6714C155.306 27.0428 155.181 27.4655 155.167 27.899C154.98 27.899 154.8 27.9735 154.667 28.106C154.535 28.2386 154.46 28.4184 154.46 28.6059C154.46 29.8467 154.787 31.0657 155.408 32.1403C156.028 33.2149 156.92 34.1072 157.995 34.7276V35.6749C157.995 35.8624 158.069 36.0422 158.202 36.1747C158.335 36.3073 158.514 36.3818 158.702 36.3818H164.357C164.545 36.3818 164.724 36.3073 164.857 36.1747C164.989 36.0422 165.064 35.8624 165.064 35.6749V34.7276C166.139 34.1072 167.031 33.2149 167.651 32.1403C168.272 31.0657 168.598 29.8467 168.598 28.6059C168.598 28.4184 168.524 28.2386 168.391 28.106C168.259 27.9735 168.079 27.899 167.892 27.899ZM156.581 27.899C156.599 27.6756 156.683 27.4628 156.823 27.2877C156.963 27.1126 157.152 26.9833 157.366 26.9164L157.953 26.7326L157.839 26.1317C157.841 25.9795 157.873 25.8291 157.933 25.6891C157.993 25.5492 158.08 25.4224 158.189 25.3161C158.298 25.2097 158.427 25.1259 158.568 25.0694C158.71 25.0128 158.861 24.9847 159.013 24.9865C159.217 24.9859 159.418 25.0344 159.6 25.1279L160.172 25.446L160.526 24.9017C160.636 24.737 160.786 24.602 160.961 24.5086C161.136 24.4152 161.331 24.3664 161.529 24.3664C161.728 24.3664 161.923 24.4152 162.098 24.5086C162.273 24.602 162.423 24.737 162.533 24.9017L162.887 25.446L163.459 25.1279C163.641 25.0344 163.842 24.9859 164.046 24.9865C164.352 24.9827 164.647 25.0991 164.868 25.3106C165.088 25.5222 165.217 25.8119 165.227 26.1176L165.113 26.7185L165.693 26.9164C165.907 26.9833 166.096 27.1126 166.236 27.2877C166.376 27.4628 166.46 27.6756 166.478 27.899H156.581Z" fill="#424242"/>
<path d="M182.97 15.648C184.362 15.296 185.378 16.072 186.018 17.976C186.194 18.52 186.25 18.96 186.186 19.296C186.138 19.632 185.922 20.144 185.538 20.832C185.122 21.568 184.554 22.08 183.834 22.368C183.13 22.656 182.45 22.72 181.794 22.56C181.138 22.4 180.57 22.032 180.09 21.456C179.61 20.88 179.37 20.176 179.37 19.344C179.37 18.8 179.394 18.456 179.442 18.312C179.634 17.688 179.986 17.152 180.498 16.704C181.01 16.256 181.602 15.96 182.274 15.816C182.386 15.784 182.618 15.728 182.97 15.648ZM183.522 17.832C183.234 17.704 182.842 17.72 182.346 17.88C181.866 18.04 181.53 18.256 181.338 18.528C181.146 18.816 181.146 19.2 181.338 19.68C181.546 20.144 181.826 20.416 182.178 20.496C182.658 20.608 183.098 20.472 183.498 20.088C183.914 19.704 184.122 19.296 184.122 18.864C184.122 18.416 183.922 18.072 183.522 17.832ZM182.418 22.896C183.042 22.72 183.458 22.744 183.666 22.968C183.746 23.048 183.786 23.152 183.786 23.28C183.802 23.392 183.81 23.744 183.81 24.336C183.81 25.12 183.826 25.616 183.858 25.824L183.882 26.088L186.21 26.064C187.746 26.048 188.53 26.064 188.562 26.112C188.594 26.16 188.602 26.472 188.586 27.048C188.57 27.608 188.546 27.904 188.514 27.936C188.434 28.016 186.802 28.104 183.618 28.2C180.434 28.28 178.506 28.296 177.834 28.248C177.322 28.216 177.034 28.168 176.97 28.104C176.906 28.04 176.866 27.768 176.85 27.288C176.85 27.24 176.85 27.168 176.85 27.072C176.834 26.752 176.906 26.568 177.066 26.52C177.242 26.456 177.826 26.408 178.818 26.376C179.09 26.36 179.306 26.352 179.466 26.352C180.938 26.304 181.69 26.28 181.722 26.28C181.786 26.264 181.85 25.408 181.914 23.712C181.93 23.392 181.962 23.192 182.01 23.112C182.058 23.016 182.194 22.944 182.418 22.896ZM180.258 29.88C180.322 29.88 180.418 29.872 180.546 29.856C180.946 29.824 181.178 29.872 181.242 30C181.322 30.112 181.37 30.552 181.386 31.32C181.386 31.544 181.386 31.72 181.386 31.848C181.418 33.096 181.45 33.776 181.482 33.888C181.498 33.968 181.61 34.016 181.818 34.032C182.026 34.048 182.746 34.04 183.978 34.008C185.546 33.992 186.45 33.976 186.69 33.96C186.93 33.928 187.066 33.992 187.098 34.152C187.13 34.328 187.106 34.784 187.026 35.52C187.026 35.536 187.026 35.552 187.026 35.568C186.994 35.776 186.818 35.896 186.498 35.928C186.194 35.96 185.114 35.976 183.258 35.976C183.13 35.976 183.026 35.976 182.946 35.976H179.394L179.322 35.568C179.258 35.312 179.218 34.336 179.202 32.64C179.202 30.928 179.226 30.048 179.274 30C179.338 29.952 179.666 29.912 180.258 29.88ZM201.715 19.656C202.099 19.576 202.347 19.544 202.459 19.56C202.587 19.576 202.667 19.64 202.699 19.752C202.779 20.184 202.843 22.24 202.891 25.92C202.939 29.584 202.923 31.568 202.843 31.872C202.827 31.968 202.771 32.024 202.675 32.04C202.579 32.04 202.275 32.04 201.763 32.04C201.219 32.04 200.907 32.032 200.827 32.016C200.747 32 200.715 31.928 200.731 31.8C200.731 31.64 200.739 29.648 200.755 25.824C200.787 21.888 200.811 19.896 200.827 19.848C200.859 19.832 200.939 19.808 201.067 19.776C201.227 19.744 201.443 19.704 201.715 19.656ZM192.667 21.888C192.699 21.856 193.339 21.856 194.587 21.888C195.851 21.904 196.507 21.928 196.555 21.96C196.587 22.008 196.579 22.232 196.531 22.632C196.499 23.032 196.451 23.336 196.387 23.544C196.323 23.784 196.275 24.056 196.243 24.36C196.195 24.648 196.147 24.912 196.099 25.152C196.051 25.36 196.011 25.704 195.979 26.184C195.803 28.568 195.659 29.888 195.547 30.144C195.515 30.208 195.451 30.248 195.355 30.264C195.275 30.28 195.003 30.28 194.539 30.264C193.931 30.232 193.595 30.192 193.531 30.144C193.467 30.08 193.459 29.832 193.507 29.4C193.699 27.896 193.851 26.336 193.963 24.72L193.987 24.12L192.091 24.096C191.995 24.096 191.843 24.088 191.635 24.072C190.579 24.056 189.963 24.008 189.787 23.928C189.611 23.832 189.531 23.52 189.547 22.992C189.547 22.896 189.555 22.824 189.571 22.776V22.008L191.107 21.984C192.115 21.952 192.635 21.92 192.667 21.888ZM215.667 15.984C215.971 15.952 216.155 15.944 216.219 15.96C216.283 15.96 216.323 15.992 216.339 16.056C216.467 16.392 216.531 17.272 216.531 18.696C216.531 18.76 216.531 18.856 216.531 18.984C216.531 19.56 216.547 19.896 216.579 19.992C216.627 20.072 216.779 20.112 217.035 20.112C217.083 20.112 217.123 20.112 217.155 20.112C217.555 20.112 218.147 20.128 218.931 20.16C219.635 20.176 220.051 20.208 220.179 20.256C220.307 20.288 220.355 20.408 220.323 20.616C220.291 20.744 220.259 20.968 220.227 21.288C220.227 21.336 220.227 21.392 220.227 21.456C220.195 21.76 220.115 21.936 219.987 21.984C219.875 22.032 219.467 22.056 218.763 22.056C218.603 22.056 218.475 22.056 218.379 22.056C218.235 22.056 218.043 22.056 217.803 22.056C217.563 22.056 217.403 22.048 217.323 22.032C217.243 22.016 217.131 22.024 216.987 22.056C216.843 22.088 216.755 22.104 216.723 22.104C216.707 22.088 216.659 22.12 216.579 22.2C216.499 22.28 216.459 22.336 216.459 22.368C216.459 22.384 216.443 22.472 216.411 22.632C216.395 22.776 216.387 22.888 216.387 22.968C216.403 23.032 216.411 23.184 216.411 23.424C216.411 23.664 216.411 23.864 216.411 24.024C216.411 24.136 216.411 24.304 216.411 24.528C216.411 25.344 216.379 25.824 216.315 25.968C216.267 26.096 216.059 26.168 215.691 26.184C215.595 26.184 215.523 26.192 215.475 26.208C215.379 26.208 215.259 26.216 215.115 26.232C214.827 26.28 214.651 26.232 214.587 26.088C214.475 25.832 214.443 24.472 214.491 22.008C214.491 21.096 214.499 20.36 214.515 19.8L214.563 16.128L214.947 16.08C215.091 16.064 215.331 16.032 215.667 15.984ZM210.267 17.112C210.603 17.048 210.955 17.032 211.323 17.064C211.691 17.08 211.891 17.12 211.923 17.184C211.971 17.28 212.003 17.664 212.019 18.336C212.035 19.008 212.027 19.568 211.995 20.016C211.931 20.64 211.883 21.616 211.851 22.944C211.851 23.024 211.851 23.144 211.851 23.304C211.819 24.248 211.787 24.8 211.755 24.96C211.723 25.12 211.603 25.224 211.395 25.272C211.363 25.288 211.339 25.296 211.323 25.296C210.907 25.408 209.835 25.472 208.107 25.488C206.395 25.504 205.483 25.464 205.371 25.368C205.259 25.288 205.187 25.08 205.155 24.744C205.123 24.392 205.107 23.728 205.107 22.752C205.107 21.52 205.091 20.616 205.059 20.04C205.043 19.912 205.027 19.736 205.011 19.512C204.931 18.424 204.923 17.792 204.987 17.616C205.067 17.44 205.347 17.344 205.827 17.328C205.923 17.328 205.995 17.328 206.043 17.328C206.507 17.296 206.771 17.328 206.835 17.424C206.899 17.52 206.947 17.904 206.979 18.576C207.011 19.2 207.027 19.52 207.027 19.536C207.043 19.552 207.395 19.552 208.083 19.536C208.787 19.52 209.243 19.504 209.451 19.488L209.979 19.416L210.003 18.264V17.136L210.267 17.112ZM209.907 22.368L209.931 21.432H208.995C208.371 21.432 207.915 21.456 207.627 21.504L207.171 21.552V22.488C207.171 22.952 207.171 23.224 207.171 23.304C207.187 23.384 207.235 23.432 207.315 23.448C207.411 23.48 207.843 23.48 208.611 23.448C209.395 23.4 209.803 23.36 209.835 23.328C209.867 23.296 209.891 22.976 209.907 22.368ZM213.987 28.032C214.755 27.936 215.243 28.008 215.451 28.248C215.531 28.36 215.547 29.512 215.499 31.704C215.451 33.896 215.379 35.096 215.283 35.304C215.203 35.432 214.995 35.504 214.659 35.52C214.339 35.552 213.371 35.568 211.755 35.568L208.707 35.592L208.659 35.352C208.579 35.064 208.515 33.856 208.467 31.728C208.419 29.584 208.435 28.496 208.515 28.464C208.563 28.448 208.795 28.408 209.211 28.344C209.643 28.28 209.915 28.248 210.027 28.248C210.107 28.248 210.163 28.304 210.195 28.416C210.227 28.512 210.259 28.76 210.291 29.16C210.323 29.64 210.355 29.904 210.387 29.952C210.435 29.984 210.995 29.984 212.067 29.952L213.675 29.904V29.064C213.675 28.584 213.683 28.296 213.699 28.2C213.731 28.104 213.827 28.048 213.987 28.032ZM213.411 32.88C213.427 32.4 213.403 32.136 213.339 32.088C213.291 32.024 212.883 31.992 212.115 31.992C212.035 31.992 211.923 31.992 211.779 31.992C211.139 31.992 210.763 32.024 210.651 32.088C210.555 32.136 210.515 32.328 210.531 32.664C210.531 32.728 210.531 32.784 210.531 32.832C210.531 32.88 210.531 32.944 210.531 33.024C210.547 33.392 210.595 33.6 210.675 33.648C210.771 33.712 211.075 33.736 211.587 33.72C211.699 33.72 211.787 33.72 211.851 33.72C211.931 33.72 212.035 33.712 212.163 33.696C212.771 33.68 213.123 33.64 213.219 33.576C213.331 33.528 213.395 33.344 213.411 33.024C213.411 32.96 213.411 32.912 213.411 32.88ZM232.428 16.128C232.764 16.08 232.956 16.08 233.004 16.128C233.068 16.16 233.116 16.344 233.148 16.68C233.292 17.768 233.364 18.76 233.364 19.656C233.364 20.072 233.372 20.32 233.388 20.4C233.404 20.464 233.468 20.496 233.58 20.496C233.82 20.496 234.356 20.52 235.188 20.568C236.02 20.6 236.516 20.624 236.676 20.64C236.884 20.672 236.996 20.728 237.012 20.808C237.044 20.888 237.036 21.12 236.988 21.504C236.988 21.552 236.988 21.608 236.988 21.672C236.956 21.864 236.932 22 236.916 22.08C236.916 22.144 236.884 22.224 236.82 22.32C236.756 22.416 236.708 22.472 236.676 22.488C236.644 22.504 236.54 22.528 236.364 22.56C236.188 22.576 236.028 22.584 235.884 22.584C235.756 22.584 235.524 22.576 235.188 22.56C235.076 22.56 234.988 22.56 234.924 22.56C233.884 22.528 233.348 22.52 233.316 22.536C233.284 22.552 233.252 23.032 233.22 23.976C233.172 25.752 233.1 26.664 233.004 26.712C232.844 26.776 232.524 26.808 232.044 26.808C231.58 26.792 231.324 26.744 231.276 26.664C231.212 26.568 231.196 24.808 231.228 21.384L231.276 16.272L231.636 16.224C231.7 16.208 231.828 16.192 232.02 16.176C232.212 16.144 232.348 16.128 232.428 16.128ZM224.316 17.448C224.364 17.384 224.412 17.36 224.46 17.376C224.524 17.376 224.732 17.416 225.084 17.496C225.532 17.592 225.796 17.68 225.876 17.76C225.956 17.824 225.996 18.008 225.996 18.312C225.996 18.584 226.028 18.824 226.092 19.032C226.172 19.24 226.332 19.552 226.572 19.968C226.908 20.496 227.244 21.088 227.58 21.744C228.092 22.768 228.468 23.456 228.708 23.808C228.868 24.048 228.94 24.208 228.924 24.288C228.924 24.368 228.844 24.464 228.684 24.576C228.524 24.672 228.332 24.848 228.108 25.104C227.916 25.328 227.78 25.432 227.7 25.416C227.62 25.4 227.476 25.224 227.268 24.888C226.788 24.12 226.476 23.616 226.332 23.376C225.932 22.752 225.596 22.176 225.324 21.648C224.972 20.96 224.796 20.8 224.796 21.168C224.796 21.232 224.78 21.288 224.748 21.336C224.604 21.496 224.396 22.064 224.124 23.04C224.06 23.248 224.012 23.384 223.98 23.448C223.9 23.656 223.852 23.792 223.836 23.856C223.692 24.32 223.524 24.744 223.332 25.128C223.156 25.496 223.028 25.68 222.948 25.68C222.916 25.68 222.668 25.56 222.204 25.32C221.772 25.096 221.524 24.984 221.46 24.984C221.268 24.984 221.228 24.816 221.34 24.48C221.404 24.272 221.5 24.024 221.628 23.736C221.66 23.656 221.748 23.44 221.892 23.088C221.988 22.864 222.084 22.632 222.18 22.392C222.26 22.2 222.3 22.096 222.3 22.08C222.3 22.048 222.428 21.76 222.684 21.216C222.764 21.024 222.868 20.784 222.996 20.496C223.22 19.936 223.54 19.192 223.956 18.264C224.1 17.944 224.172 17.768 224.172 17.736C224.22 17.608 224.268 17.512 224.316 17.448ZM229.14 28.536C229.204 28.472 229.396 28.456 229.716 28.488C230.036 28.504 230.236 28.544 230.316 28.608C230.428 28.688 230.5 28.728 230.532 28.728C230.868 28.728 231.268 29.088 231.732 29.808C232.212 30.512 232.476 31.152 232.524 31.728C232.572 32.352 232.364 33 231.9 33.672C231.436 34.344 230.844 34.864 230.124 35.232C229.9 35.344 229.532 35.392 229.02 35.376C228.524 35.36 228.116 35.288 227.796 35.16C227.508 35.032 227.228 34.88 226.956 34.704C226.3 34.24 225.876 33.512 225.684 32.52C225.524 31.752 225.78 30.936 226.452 30.072C227.14 29.208 227.9 28.72 228.732 28.608C228.988 28.592 229.124 28.568 229.14 28.536ZM229.908 30.792C229.764 30.632 229.636 30.536 229.524 30.504C229.428 30.472 229.292 30.488 229.116 30.552C229.036 30.584 228.892 30.624 228.684 30.672C228.316 30.784 228.036 31.024 227.844 31.392C227.668 31.744 227.628 32.112 227.724 32.496C227.836 32.864 228.068 33.12 228.42 33.264C228.548 33.328 228.692 33.36 228.852 33.36C229.012 33.36 229.108 33.336 229.14 33.288C229.172 33.256 229.22 33.24 229.284 33.24C229.364 33.24 229.492 33.168 229.668 33.024C229.844 32.896 229.964 32.776 230.028 32.664C230.476 31.96 230.436 31.336 229.908 30.792Z" fill="#424242"/>
</svg>
