<svg width="233" height="293" viewBox="0 0 233 293" fill="none" xmlns="http://www.w3.org/2000/svg">
<path d="M103.274 4.6699L103.259 4.69075L103.188 4.78984C102.817 5.31197 102.471 5.85143 102.15 6.40648C101.877 6.85142 101.637 7.31687 101.433 7.79887C101.3 8.11177 101.26 8.27865 101.244 8.33601V8.35687C101.303 8.81788 101.461 9.25969 101.707 9.65018C102.089 10.3438 102.613 11.0687 103.274 11.9708L103.325 12.0334C103.925 12.8574 104.648 13.843 105.207 14.8651C105.777 15.9081 106.326 17.2379 106.326 18.7503C106.326 19.7307 105.996 20.6694 105.721 21.3265C105.427 22.0257 105.083 22.7019 104.693 23.3499C104.294 24.0337 103.865 24.6985 103.406 25.342L103.315 25.4724L103.289 25.5141L103.279 25.5245C102.875 26.0784 102.273 26.4451 101.605 26.5439C100.937 26.6427 100.259 26.4655 99.7183 26.0512C99.178 25.637 98.8203 25.0197 98.7239 24.3351C98.6276 23.6505 98.8004 22.9547 99.2045 22.4008L99.2198 22.3799L99.291 22.2808C99.6611 21.7587 100.007 21.2192 100.329 20.6642C100.602 20.2192 100.841 19.7538 101.046 19.2718C101.178 18.9589 101.219 18.792 101.234 18.7346C101.18 18.2668 101.024 17.8176 100.776 17.4205C100.304 16.6114 99.779 15.8361 99.2045 15.0998L99.1536 15.0372C98.4664 14.1367 97.8376 13.1907 97.2715 12.2055C96.5786 11.0307 96.1931 9.69255 96.1523 8.32037C96.1523 7.33995 96.483 6.40126 96.7577 5.74418C97.0578 5.02451 97.4393 4.31528 97.7853 3.72077C98.1894 3.04018 98.6187 2.37566 99.0723 1.72866L99.1994 1.54613C99.6035 0.992205 100.206 0.625519 100.873 0.526741C101.541 0.427964 102.22 0.605187 102.76 1.01942C103.301 1.43366 103.658 2.05098 103.755 2.73557C103.851 3.42017 103.678 4.11597 103.274 4.6699ZM118.535 4.6699L118.52 4.69075L118.448 4.78984C118.078 5.31197 117.732 5.85143 117.411 6.40648C117.138 6.85142 116.898 7.31687 116.693 7.79887C116.561 8.11177 116.521 8.27865 116.505 8.33601V8.35687C116.564 8.81788 116.722 9.25969 116.968 9.65018C117.35 10.3438 117.874 11.0687 118.535 11.9708L118.586 12.0334C119.186 12.8574 119.908 13.843 120.468 14.8651C121.038 15.9081 121.587 17.2379 121.587 18.7503C121.587 19.7307 121.256 20.6694 120.982 21.3265C120.688 22.0257 120.344 22.7019 119.954 23.3499C119.555 24.0337 119.126 24.6985 118.667 25.342L118.576 25.4724L118.55 25.5141L118.54 25.5245C118.136 26.0784 117.534 26.4451 116.866 26.5439C116.198 26.6427 115.52 26.4655 114.979 26.0512C114.439 25.637 114.081 25.0197 113.985 24.3351C113.888 23.6505 114.061 22.9547 114.465 22.4008L114.481 22.3799L114.552 22.2808C114.922 21.7587 115.268 21.2192 115.59 20.6642C115.863 20.2192 116.102 19.7538 116.307 19.2718C116.439 18.9589 116.48 18.792 116.495 18.7346C116.441 18.2668 116.284 17.8176 116.037 17.4205C115.565 16.6114 115.04 15.8361 114.465 15.0998L114.415 15.0372C113.727 14.1367 113.098 13.1907 112.532 12.2055C111.839 11.0307 111.454 9.69255 111.413 8.32037C111.413 7.33995 111.744 6.40126 112.019 5.74418C112.319 5.02451 112.7 4.31528 113.046 3.72077C113.45 3.04018 113.88 2.37566 114.333 1.72866L114.46 1.54613C114.864 0.992205 115.467 0.625519 116.134 0.526741C116.802 0.427964 117.481 0.605187 118.021 1.01942C118.562 1.43366 118.919 2.05098 119.016 2.73557C119.112 3.42017 118.939 4.11597 118.535 4.6699ZM133.796 4.6699L133.781 4.69075L133.709 4.78984C133.339 5.31197 132.993 5.85143 132.672 6.40648C132.399 6.85142 132.159 7.31687 131.954 7.79887C131.822 8.11177 131.781 8.27865 131.766 8.33601V8.35687C131.825 8.81788 131.983 9.25969 132.229 9.65018C132.611 10.3438 133.135 11.0687 133.796 11.9708L133.847 12.0334C134.447 12.8574 135.169 13.843 135.729 14.8651C136.299 15.9081 136.848 17.2379 136.848 18.7503C136.848 19.7307 136.517 20.6694 136.243 21.3265C135.949 22.0257 135.605 22.7019 135.215 23.3499C134.818 24.0336 134.39 24.6984 133.933 25.342L133.837 25.4724L133.811 25.5141L133.801 25.5245C133.397 26.0784 132.795 26.4451 132.127 26.5439C131.459 26.6427 130.78 26.4655 130.24 26.0512C129.7 25.637 129.342 25.0197 129.246 24.3351C129.149 23.6505 129.322 22.9547 129.726 22.4008L129.742 22.3799L129.813 22.2808C130.183 21.7587 130.529 21.2192 130.85 20.6642C131.123 20.2192 131.363 19.7538 131.568 19.2718C131.7 18.9589 131.741 18.792 131.756 18.7346C131.702 18.2668 131.545 17.8176 131.298 17.4205C130.826 16.6114 130.301 15.8361 129.726 15.0998L129.675 15.0372C128.988 14.1367 128.359 13.1907 127.793 12.2055C127.1 11.0307 126.715 9.69255 126.674 8.32037C126.674 7.33995 127.005 6.40126 127.279 5.74418C127.58 5.02451 127.961 4.31528 128.307 3.72077C128.711 3.04018 129.14 2.37566 129.594 1.72866L129.721 1.54613C130.125 0.992205 130.727 0.625519 131.395 0.526741C132.063 0.427964 132.742 0.605187 133.282 1.01942C133.822 1.43366 134.18 2.05098 134.276 2.73557C134.373 3.42017 134.2 4.11597 133.796 4.6699Z" fill="#FFA83F"/>
<path d="M152.359 66.4143C152.286 63.9748 151.589 61.5948 150.333 59.502C149.077 57.4092 147.306 55.6735 145.188 54.4612C144.68 50.9905 142.938 47.8192 140.281 45.5287C137.625 43.2382 134.232 41.9818 130.724 41.9901C129.38 41.9939 128.041 42.168 126.74 42.508C123.997 39.8897 120.351 38.4288 116.56 38.4288C112.768 38.4288 109.122 39.8897 106.38 42.508C105.079 42.168 103.74 41.9939 102.395 41.9901C98.874 41.9626 95.4618 43.2102 92.7886 45.5025C90.1155 47.7948 88.3622 50.9769 87.8523 54.4612C85.7267 55.6686 83.9471 57.402 82.6843 59.4952C81.4214 61.5883 80.7177 63.9709 80.6406 66.4143C79.5839 66.4143 78.5705 66.8341 77.8232 67.5813C77.076 68.3285 76.6562 69.3419 76.6562 70.3987C76.6564 77.3925 78.4975 84.2631 81.9946 90.32C85.4916 96.3768 90.5213 101.406 96.5781 104.903V110.242C96.5781 111.299 96.9979 112.313 97.7451 113.06C98.4923 113.807 99.5058 114.227 100.562 114.227H132.438C133.494 114.227 134.508 113.807 135.255 113.06C136.002 112.313 136.422 111.299 136.422 110.242V104.903C142.479 101.406 147.508 96.3768 151.005 90.32C154.502 84.2631 156.344 77.3925 156.344 70.3987C156.344 69.3419 155.924 68.3285 155.177 67.5813C154.43 66.8341 153.416 66.4143 152.359 66.4143ZM88.6094 66.4143C88.7106 65.1555 89.1857 63.9556 89.9738 62.9688C90.7618 61.982 91.8268 61.2532 93.032 60.876L96.3391 59.8401L95.7016 56.4533C95.712 55.5952 95.8913 54.7475 96.2293 53.9587C96.5674 53.1699 97.0575 52.4554 97.6716 51.856C98.2858 51.2566 99.0121 50.7841 99.8089 50.4654C100.606 50.1467 101.458 49.9881 102.316 49.9987C103.466 49.9952 104.6 50.2685 105.623 50.7955L108.85 52.5885L110.842 49.5205C111.465 48.5919 112.307 47.8309 113.294 47.3047C114.281 46.7785 115.382 46.5033 116.5 46.5033C117.618 46.5033 118.719 46.7785 119.706 47.3047C120.693 47.8309 121.535 48.5919 122.158 49.5205L124.15 52.5885L127.377 50.7955C128.4 50.2685 129.534 49.9952 130.684 49.9987C132.408 49.977 134.071 50.6329 135.315 51.8253C136.56 53.0176 137.286 54.6509 137.338 56.3737L136.701 59.7604L139.968 60.876C141.173 61.2532 142.238 61.982 143.026 62.9688C143.814 63.9556 144.289 65.1555 144.391 66.4143H88.6094Z" fill="#FFA83F"/>
<path d="M18.1558 176.973H15.1675V161.047H18.1558V176.973ZM21.0386 170.024H17.2886V167.575H21.0386V170.024ZM13.8902 165.629H1.22219V163.274H13.8902V165.629ZM7.57375 166.379C8.58938 166.379 9.49563 166.555 10.2925 166.907C11.0894 167.25 11.7105 167.735 12.1558 168.36C12.6011 168.985 12.8238 169.703 12.8238 170.516C12.8238 171.321 12.6011 172.032 12.1558 172.649C11.7105 173.258 11.0894 173.735 10.2925 174.078C9.49563 174.422 8.58938 174.594 7.57375 174.594C6.5425 174.594 5.62453 174.422 4.81985 174.078C4.01516 173.735 3.39016 173.258 2.94485 172.649C2.49953 172.032 2.27688 171.321 2.27688 170.516C2.27688 169.703 2.49953 168.985 2.94485 168.36C3.39016 167.735 4.01516 167.25 4.81985 166.907C5.62453 166.555 6.5425 166.379 7.57375 166.379ZM7.57375 168.676C7.09719 168.676 6.67532 168.746 6.30813 168.887C5.94875 169.028 5.67141 169.239 5.4761 169.52C5.28078 169.801 5.18313 170.133 5.18313 170.516C5.18313 170.899 5.28078 171.227 5.4761 171.5C5.67141 171.766 5.94875 171.969 6.30813 172.11C6.67532 172.25 7.09719 172.321 7.57375 172.321C8.05032 172.321 8.46828 172.25 8.82766 172.11C9.19485 171.969 9.48 171.766 9.68313 171.5C9.88625 171.227 9.98782 170.899 9.98782 170.516C9.98782 170.133 9.88625 169.801 9.68313 169.52C9.48 169.239 9.19485 169.028 8.82766 168.887C8.46828 168.746 8.05032 168.676 7.57375 168.676ZM9.06203 164.434H6.07375V161.012H9.06203V164.434ZM18.9175 181.989H4.31594V179.575H18.9175V181.989ZM7.30422 180.606H4.31594V175.743H7.30422V180.606ZM42.659 165.395H29.0184V162.981H42.659V165.395ZM46.4676 179.539H27.0145V177.114H46.4676V179.539ZM44.0653 165.536C44.0653 166.871 44.0497 167.989 44.0184 168.887C43.995 169.778 43.9286 170.805 43.8192 171.969C43.7176 173.133 43.5458 174.407 43.3036 175.789L40.2684 175.543C40.5262 174.262 40.7137 173.051 40.8309 171.911C40.9481 170.77 41.0184 169.743 41.0418 168.828C41.0653 167.907 41.077 166.809 41.077 165.536V162.981H44.0653V165.536ZM66.9693 174.313H47.4693V171.957H66.9693V174.313ZM64.6138 167.258H52.8716V169.59H49.895V165.137H61.6138V163.86H49.8599V161.551H64.6138V167.258ZM65.0122 170.821H49.895V168.524H65.0122V170.821ZM58.2974 175.661C58.2974 176.832 57.9653 177.883 57.3013 178.813C56.645 179.735 55.6841 180.489 54.4185 181.075C53.1528 181.668 51.6216 182.063 49.8247 182.258L48.8521 180.008C50.3833 179.852 51.6646 179.567 52.6958 179.153C53.7271 178.731 54.4888 178.223 54.981 177.629C55.481 177.028 55.731 176.371 55.731 175.661V175.332H58.2974V175.661ZM58.7544 175.661C58.7544 176.371 59.0044 177.028 59.5044 177.629C60.0122 178.223 60.7818 178.731 61.813 179.153C62.8521 179.567 64.1294 179.852 65.645 180.008L64.6841 182.258C62.895 182.063 61.3638 181.668 60.0903 181.075C58.8169 180.489 57.8443 179.735 57.1724 178.813C56.5083 177.883 56.1763 176.832 56.1763 175.661V175.332H58.7544V175.661ZM80.1349 171.301H76.5724V168.911H80.1349V171.301ZM86.4513 182.352H83.5803V161H86.4513V182.352ZM82.0099 181.368H79.1857V161.328H82.0099V181.368ZM72.7873 162.536C73.7326 162.536 74.5607 162.848 75.2717 163.473C75.9826 164.09 76.5295 164.981 76.9123 166.145C77.3029 167.309 77.4982 168.68 77.4982 170.258C77.4982 171.828 77.3029 173.2 76.9123 174.371C76.5295 175.536 75.9826 176.434 75.2717 177.067C74.5607 177.692 73.7326 178.008 72.7873 178.016C71.8498 178.008 71.0295 177.692 70.3263 177.067C69.6232 176.434 69.0803 175.536 68.6974 174.371C68.3224 173.2 68.1349 171.828 68.1349 170.258C68.1349 168.672 68.3224 167.301 68.6974 166.145C69.0803 164.981 69.6232 164.09 70.3263 163.473C71.0373 162.848 71.8576 162.536 72.7873 162.536ZM72.7873 165.371C72.381 165.364 72.0373 165.543 71.756 165.911C71.4748 166.278 71.2599 166.825 71.1115 167.551C70.9709 168.278 70.9006 169.18 70.9006 170.258C70.9006 171.328 70.9709 172.231 71.1115 172.965C71.2599 173.7 71.4748 174.246 71.756 174.606C72.0451 174.965 72.3888 175.145 72.7873 175.145C73.2013 175.145 73.5529 174.965 73.842 174.606C74.131 174.246 74.3537 173.7 74.5099 172.965C74.6662 172.231 74.7443 171.328 74.7443 170.258C74.7443 169.18 74.6662 168.278 74.5099 167.551C74.3537 166.825 74.131 166.278 73.842 165.911C73.5529 165.543 73.2013 165.364 72.7873 165.371ZM110.65 173H107.662V161H110.65V173ZM113.533 168.289H109.806V165.828H113.533V168.289ZM96.3413 169.813C98.7398 169.821 100.615 169.778 101.966 169.684C103.326 169.59 104.638 169.414 105.904 169.157L106.232 171.512C105.357 171.707 104.466 171.856 103.56 171.957C102.662 172.051 101.673 172.114 100.595 172.145C99.5171 172.176 98.0991 172.192 96.3413 172.192H94.5483V169.813H96.3413ZM104.076 164.75H97.5366V171.219H94.5483V162.36H104.076V164.75ZM110.65 182.106H96.7046V173.891H110.65V182.106ZM99.6694 179.75H107.697V176.258H99.6694V179.75ZM132.019 176.539H129.007V161.047H132.019V176.539ZM125.808 162.594C125.808 164.516 125.413 166.243 124.624 167.774C123.835 169.305 122.687 170.621 121.179 171.723C119.671 172.825 117.839 173.692 115.683 174.325L114.511 171.934C116.261 171.434 117.741 170.789 118.952 170C120.171 169.203 121.089 168.297 121.706 167.282C122.323 166.258 122.632 165.161 122.632 163.989V162.594H125.808ZM124.495 165.043H115.73V162.594H124.495V165.043ZM132.464 181.989H117.757V179.575H132.464V181.989ZM120.745 180.512H117.757V175.18H120.745V180.512ZM159.463 175.379H139.963V172.942H159.463V175.379ZM151.131 182.375H148.167V174.489H151.131V182.375ZM149.655 161.727C151.178 161.727 152.526 161.926 153.698 162.325C154.877 162.715 155.792 163.278 156.44 164.012C157.096 164.739 157.424 165.594 157.424 166.578C157.424 167.524 157.096 168.356 156.44 169.075C155.792 169.793 154.877 170.348 153.698 170.739C152.526 171.129 151.178 171.325 149.655 171.325C148.139 171.325 146.792 171.129 145.612 170.739C144.44 170.348 143.53 169.793 142.881 169.075C142.233 168.356 141.909 167.524 141.909 166.578C141.909 165.594 142.233 164.739 142.881 164.012C143.53 163.278 144.44 162.715 145.612 162.325C146.792 161.926 148.139 161.727 149.655 161.727ZM149.655 164.118C148.702 164.118 147.874 164.211 147.17 164.399C146.467 164.586 145.928 164.868 145.553 165.243C145.186 165.61 145.002 166.055 145.002 166.578C145.002 167.078 145.186 167.508 145.553 167.868C145.928 168.227 146.467 168.5 147.17 168.688C147.874 168.868 148.702 168.961 149.655 168.969C150.624 168.961 151.459 168.868 152.163 168.688C152.866 168.5 153.405 168.227 153.78 167.868C154.155 167.508 154.342 167.078 154.342 166.578C154.342 166.055 154.155 165.61 153.78 165.243C153.405 164.868 152.862 164.586 152.151 164.399C151.448 164.211 150.616 164.118 149.655 164.118ZM178.336 182.411H175.348V161H178.336V182.411ZM163.512 174.946C165.512 174.953 167.317 174.907 168.926 174.805C170.535 174.696 172.168 174.508 173.824 174.243L174.094 176.657C172.453 176.946 170.817 177.145 169.184 177.254C167.559 177.356 165.668 177.407 163.512 177.407H161.602V174.946H163.512ZM171.715 171.02H164.684V175.883H161.602V168.676H168.668V165.219H161.578V162.805H171.715V171.02ZM205.722 173.457H186.234V171.09H205.722V173.457ZM197.437 172.028H194.507V167.879H197.437V172.028ZM203.496 169.262H188.589V166.918H203.496V169.262ZM203.378 164.293H191.554V168.453H188.589V161.961H203.378V164.293ZM195.925 174.512C197.472 174.512 198.8 174.664 199.91 174.969C201.027 175.274 201.878 175.723 202.464 176.317C203.058 176.911 203.355 177.625 203.355 178.461C203.355 179.289 203.058 179.996 202.464 180.582C201.878 181.168 201.027 181.614 199.91 181.918C198.8 182.223 197.472 182.379 195.925 182.387C194.378 182.379 193.042 182.223 191.917 181.918C190.8 181.614 189.941 181.168 189.339 180.582C188.746 179.996 188.449 179.289 188.449 178.461C188.449 177.625 188.746 176.911 189.339 176.317C189.941 175.723 190.8 175.274 191.917 174.969C193.035 174.664 194.371 174.512 195.925 174.512ZM195.925 176.797C194.941 176.797 194.121 176.86 193.464 176.985C192.808 177.102 192.316 177.286 191.988 177.536C191.66 177.786 191.496 178.094 191.496 178.461C191.496 178.836 191.66 179.145 191.988 179.387C192.316 179.629 192.804 179.809 193.453 179.926C194.109 180.043 194.933 180.102 195.925 180.102C196.91 180.102 197.726 180.043 198.375 179.926C199.031 179.809 199.523 179.629 199.851 179.387C200.179 179.137 200.343 178.828 200.343 178.461C200.343 178.094 200.179 177.786 199.851 177.536C199.523 177.286 199.027 177.102 198.363 176.985C197.707 176.86 196.894 176.797 195.925 176.797ZM210.509 175.473H207.521V163.051H210.509V175.473ZM208.997 174.688C210.458 174.696 211.743 174.657 212.853 174.571C213.97 174.485 215.114 174.313 216.286 174.055L216.696 176.586C215.47 176.852 214.263 177.032 213.075 177.125C211.896 177.211 210.536 177.25 208.997 177.243H207.521V174.688H208.997ZM225.181 182.352H222.368V161H225.181V182.352ZM218.454 170.188H213.521V167.786H218.454V170.188ZM220.622 181.414H217.798V161.411H220.622V181.414ZM229.651 185.141H227.167L228.327 178.473H231.679L229.651 185.141Z" fill="#252525"/>
<path d="M52.5697 211.924C56.2818 210.985 58.9911 213.054 60.6978 218.132C61.1671 219.582 61.3164 220.756 61.1458 221.652C61.0178 222.548 60.4418 223.913 59.4178 225.748C58.3084 227.71 56.7938 229.076 54.8738 229.844C52.9964 230.612 51.1831 230.782 49.4338 230.356C47.6844 229.929 46.1698 228.948 44.8898 227.412C43.6098 225.876 42.9698 223.998 42.9698 221.78C42.9698 220.329 43.0338 219.412 43.1617 219.028C43.6738 217.364 44.6124 215.934 45.9777 214.74C47.3431 213.545 48.9218 212.756 50.7138 212.372C51.0124 212.286 51.6311 212.137 52.5697 211.924ZM54.0417 217.748C53.2738 217.406 52.2284 217.449 50.9058 217.876C49.6258 218.302 48.7298 218.878 48.2178 219.604C47.7058 220.372 47.7058 221.396 48.2178 222.676C48.7724 223.913 49.5191 224.638 50.4578 224.852C51.7378 225.15 52.9111 224.788 53.9778 223.764C55.0871 222.74 55.6418 221.652 55.6418 220.5C55.6418 219.305 55.1084 218.388 54.0417 217.748ZM51.0977 231.252C52.7617 230.782 53.8711 230.846 54.4258 231.444C54.6391 231.657 54.7458 231.934 54.7458 232.276C54.7884 232.574 54.8098 233.513 54.8098 235.092C54.8098 237.182 54.8524 238.505 54.9377 239.06L55.0018 239.764L61.2098 239.7C65.3058 239.657 67.3964 239.7 67.4818 239.828C67.5671 239.956 67.5884 240.788 67.5457 242.324C67.5031 243.817 67.4391 244.606 67.3538 244.692C67.1404 244.905 62.7884 245.14 54.2978 245.396C45.8071 245.609 40.6657 245.652 38.8737 245.524C37.5084 245.438 36.7404 245.31 36.5697 245.14C36.3991 244.969 36.2924 244.244 36.2497 242.964C36.2497 242.836 36.2497 242.644 36.2497 242.388C36.2071 241.534 36.3991 241.044 36.8257 240.916C37.2951 240.745 38.8524 240.617 41.4978 240.532C42.2231 240.489 42.7991 240.468 43.2257 240.468C47.1511 240.34 49.1564 240.276 49.2418 240.276C49.4124 240.233 49.5831 237.95 49.7538 233.428C49.7964 232.574 49.8818 232.041 50.0098 231.828C50.1378 231.572 50.5004 231.38 51.0977 231.252ZM45.3378 249.876C45.5084 249.876 45.7644 249.854 46.1058 249.812C47.1724 249.726 47.7911 249.854 47.9618 250.196C48.1751 250.494 48.3031 251.668 48.3458 253.716C48.3458 254.313 48.3458 254.782 48.3458 255.124C48.4311 258.452 48.5164 260.265 48.6018 260.564C48.6444 260.777 48.9431 260.905 49.4978 260.948C50.0524 260.99 51.9724 260.969 55.2578 260.884C59.4391 260.841 61.8498 260.798 62.4898 260.756C63.1298 260.67 63.4924 260.841 63.5778 261.268C63.6631 261.737 63.5991 262.953 63.3858 264.916C63.3858 264.958 63.3858 265.001 63.3858 265.044C63.3004 265.598 62.8311 265.918 61.9778 266.004C61.1671 266.089 58.2871 266.132 53.3378 266.132C52.9964 266.132 52.7191 266.132 52.5058 266.132H43.0338L42.8418 265.044C42.6711 264.361 42.5644 261.758 42.5217 257.236C42.5217 252.67 42.5857 250.324 42.7137 250.196C42.8844 250.068 43.7591 249.961 45.3378 249.876ZM102.556 222.612C103.58 222.398 104.242 222.313 104.54 222.356C104.882 222.398 105.095 222.569 105.18 222.868C105.394 224.02 105.564 229.502 105.692 239.316C105.82 249.086 105.778 254.377 105.564 255.188C105.522 255.444 105.372 255.593 105.116 255.636C104.86 255.636 104.05 255.636 102.684 255.636C101.234 255.636 100.402 255.614 100.188 255.572C99.9749 255.529 99.8896 255.337 99.9323 254.996C99.9323 254.569 99.9536 249.257 99.9963 239.06C100.082 228.564 100.146 223.252 100.188 223.124C100.274 223.081 100.487 223.017 100.828 222.932C101.255 222.846 101.831 222.74 102.556 222.612ZM78.4283 228.564C78.5136 228.478 80.2203 228.478 83.5483 228.564C86.9189 228.606 88.6683 228.67 88.7963 228.756C88.8816 228.884 88.8603 229.481 88.7323 230.548C88.6469 231.614 88.5189 232.425 88.3483 232.98C88.1776 233.62 88.0496 234.345 87.9643 235.156C87.8363 235.924 87.7083 236.628 87.5803 237.268C87.4523 237.822 87.3456 238.74 87.2603 240.02C86.7909 246.377 86.4069 249.897 86.1083 250.58C86.0229 250.75 85.8523 250.857 85.5963 250.9C85.3829 250.942 84.6576 250.942 83.4203 250.9C81.7989 250.814 80.9029 250.708 80.7323 250.58C80.5616 250.409 80.5403 249.748 80.6683 248.596C81.1803 244.585 81.5856 240.425 81.8843 236.116L81.9483 234.516L76.8923 234.452C76.6363 234.452 76.2309 234.43 75.6763 234.388C72.8603 234.345 71.2176 234.217 70.7483 234.004C70.2789 233.748 70.0656 232.916 70.1083 231.508C70.1083 231.252 70.1296 231.06 70.1723 230.932V228.884L74.2683 228.82C76.9563 228.734 78.3429 228.649 78.4283 228.564ZM139.762 212.82C140.573 212.734 141.064 212.713 141.234 212.756C141.405 212.756 141.512 212.841 141.554 213.012C141.896 213.908 142.066 216.254 142.066 220.052C142.066 220.222 142.066 220.478 142.066 220.82C142.066 222.356 142.109 223.252 142.194 223.508C142.322 223.721 142.728 223.828 143.41 223.828C143.538 223.828 143.645 223.828 143.73 223.828C144.797 223.828 146.376 223.87 148.466 223.956C150.344 223.998 151.453 224.084 151.794 224.212C152.136 224.297 152.264 224.617 152.178 225.172C152.093 225.513 152.008 226.11 151.922 226.964C151.922 227.092 151.922 227.241 151.922 227.412C151.837 228.222 151.624 228.692 151.282 228.82C150.984 228.948 149.896 229.012 148.018 229.012C147.592 229.012 147.25 229.012 146.994 229.012C146.61 229.012 146.098 229.012 145.458 229.012C144.818 229.012 144.392 228.99 144.178 228.948C143.965 228.905 143.666 228.926 143.282 229.012C142.898 229.097 142.664 229.14 142.578 229.14C142.536 229.097 142.408 229.182 142.194 229.396C141.981 229.609 141.874 229.758 141.874 229.844C141.874 229.886 141.832 230.121 141.746 230.548C141.704 230.932 141.682 231.23 141.682 231.444C141.725 231.614 141.746 232.02 141.746 232.66C141.746 233.3 141.746 233.833 141.746 234.26C141.746 234.558 141.746 235.006 141.746 235.604C141.746 237.78 141.661 239.06 141.49 239.444C141.362 239.785 140.808 239.977 139.826 240.02C139.57 240.02 139.378 240.041 139.25 240.084C138.994 240.084 138.674 240.105 138.29 240.148C137.522 240.276 137.053 240.148 136.882 239.764C136.584 239.081 136.498 235.454 136.626 228.884C136.626 226.452 136.648 224.489 136.69 222.996L136.818 213.204L137.842 213.076C138.226 213.033 138.866 212.948 139.762 212.82ZM125.362 215.828C126.258 215.657 127.197 215.614 128.178 215.7C129.16 215.742 129.693 215.849 129.778 216.02C129.906 216.276 129.992 217.3 130.034 219.092C130.077 220.884 130.056 222.377 129.97 223.572C129.8 225.236 129.672 227.838 129.586 231.38C129.586 231.593 129.586 231.913 129.586 232.34C129.501 234.857 129.416 236.329 129.33 236.756C129.245 237.182 128.925 237.46 128.37 237.588C128.285 237.63 128.221 237.652 128.178 237.652C127.069 237.95 124.21 238.121 119.602 238.164C115.037 238.206 112.605 238.1 112.306 237.844C112.008 237.63 111.816 237.076 111.73 236.18C111.645 235.241 111.602 233.47 111.602 230.868C111.602 227.582 111.56 225.172 111.474 223.636C111.432 223.294 111.389 222.825 111.346 222.228C111.133 219.326 111.112 217.641 111.282 217.172C111.496 216.702 112.242 216.446 113.522 216.404C113.778 216.404 113.97 216.404 114.098 216.404C115.336 216.318 116.04 216.404 116.21 216.66C116.381 216.916 116.509 217.94 116.594 219.732C116.68 221.396 116.722 222.249 116.722 222.292C116.765 222.334 117.704 222.334 119.538 222.292C121.416 222.249 122.632 222.206 123.186 222.164L124.594 221.972L124.658 218.9V215.892L125.362 215.828ZM124.402 229.844L124.466 227.348H121.97C120.306 227.348 119.09 227.412 118.322 227.54L117.106 227.668V230.164C117.106 231.401 117.106 232.126 117.106 232.34C117.149 232.553 117.277 232.681 117.49 232.724C117.746 232.809 118.898 232.809 120.946 232.724C123.037 232.596 124.125 232.489 124.21 232.404C124.296 232.318 124.36 231.465 124.402 229.844ZM135.282 244.948C137.33 244.692 138.632 244.884 139.186 245.524C139.4 245.822 139.442 248.894 139.314 254.74C139.186 260.585 138.994 263.785 138.738 264.34C138.525 264.681 137.97 264.873 137.074 264.916C136.221 265.001 133.64 265.044 129.33 265.044L121.202 265.108L121.074 264.468C120.861 263.7 120.69 260.478 120.562 254.804C120.434 249.086 120.477 246.185 120.69 246.1C120.818 246.057 121.437 245.95 122.546 245.78C123.698 245.609 124.424 245.524 124.722 245.524C124.936 245.524 125.085 245.673 125.17 245.972C125.256 246.228 125.341 246.889 125.426 247.956C125.512 249.236 125.597 249.94 125.682 250.068C125.81 250.153 127.304 250.153 130.162 250.068L134.45 249.94V247.7C134.45 246.42 134.472 245.652 134.514 245.396C134.6 245.14 134.856 244.99 135.282 244.948ZM133.746 257.876C133.789 256.596 133.725 255.892 133.554 255.764C133.426 255.593 132.338 255.508 130.29 255.508C130.077 255.508 129.778 255.508 129.394 255.508C127.688 255.508 126.685 255.593 126.386 255.764C126.13 255.892 126.024 256.404 126.066 257.3C126.066 257.47 126.066 257.62 126.066 257.748C126.066 257.876 126.066 258.046 126.066 258.26C126.109 259.241 126.237 259.796 126.45 259.924C126.706 260.094 127.517 260.158 128.882 260.116C129.181 260.116 129.416 260.116 129.586 260.116C129.8 260.116 130.077 260.094 130.418 260.052C132.04 260.009 132.978 259.902 133.234 259.732C133.533 259.604 133.704 259.113 133.746 258.26C133.746 258.089 133.746 257.961 133.746 257.876ZM184.459 213.204C185.355 213.076 185.867 213.076 185.995 213.204C186.165 213.289 186.293 213.78 186.379 214.676C186.763 217.577 186.955 220.222 186.955 222.612C186.955 223.721 186.976 224.382 187.019 224.596C187.061 224.766 187.232 224.852 187.531 224.852C188.171 224.852 189.6 224.916 191.819 225.044C194.037 225.129 195.36 225.193 195.787 225.236C196.341 225.321 196.64 225.47 196.683 225.684C196.768 225.897 196.747 226.516 196.619 227.54C196.619 227.668 196.619 227.817 196.619 227.988C196.533 228.5 196.469 228.862 196.427 229.076C196.427 229.246 196.341 229.46 196.171 229.716C196 229.972 195.872 230.121 195.787 230.164C195.701 230.206 195.424 230.27 194.955 230.356C194.485 230.398 194.059 230.42 193.675 230.42C193.333 230.42 192.715 230.398 191.819 230.356C191.52 230.356 191.285 230.356 191.115 230.356C188.341 230.27 186.912 230.249 186.827 230.292C186.741 230.334 186.656 231.614 186.571 234.132C186.443 238.868 186.251 241.3 185.995 241.428C185.568 241.598 184.715 241.684 183.435 241.684C182.197 241.641 181.515 241.513 181.387 241.3C181.216 241.044 181.173 236.35 181.259 227.22L181.387 213.588L182.347 213.46C182.517 213.417 182.859 213.374 183.371 213.332C183.883 213.246 184.245 213.204 184.459 213.204ZM162.827 216.724C162.955 216.553 163.083 216.489 163.211 216.532C163.381 216.532 163.936 216.638 164.875 216.852C166.069 217.108 166.773 217.342 166.987 217.556C167.2 217.726 167.307 218.217 167.307 219.028C167.307 219.753 167.392 220.393 167.563 220.948C167.776 221.502 168.203 222.334 168.843 223.444C169.739 224.852 170.635 226.43 171.531 228.18C172.896 230.91 173.899 232.745 174.539 233.684C174.965 234.324 175.157 234.75 175.115 234.964C175.115 235.177 174.901 235.433 174.475 235.732C174.048 235.988 173.536 236.457 172.939 237.14C172.427 237.737 172.064 238.014 171.851 237.972C171.637 237.929 171.253 237.46 170.699 236.564C169.419 234.516 168.587 233.172 168.203 232.532C167.136 230.868 166.24 229.332 165.515 227.924C164.576 226.089 164.107 225.662 164.107 226.644C164.107 226.814 164.064 226.964 163.979 227.092C163.595 227.518 163.04 229.033 162.315 231.636C162.144 232.19 162.016 232.553 161.931 232.724C161.717 233.278 161.589 233.641 161.547 233.812C161.163 235.049 160.715 236.18 160.203 237.204C159.733 238.185 159.392 238.676 159.179 238.676C159.093 238.676 158.432 238.356 157.195 237.716C156.043 237.118 155.381 236.82 155.211 236.82C154.699 236.82 154.592 236.372 154.891 235.476C155.061 234.921 155.317 234.26 155.659 233.492C155.744 233.278 155.979 232.702 156.363 231.764C156.619 231.166 156.875 230.548 157.131 229.908C157.344 229.396 157.451 229.118 157.451 229.076C157.451 228.99 157.792 228.222 158.475 226.772C158.688 226.26 158.965 225.62 159.307 224.852C159.904 223.358 160.757 221.374 161.867 218.9C162.251 218.046 162.443 217.577 162.443 217.492C162.571 217.15 162.699 216.894 162.827 216.724ZM175.691 246.292C175.861 246.121 176.373 246.078 177.227 246.164C178.08 246.206 178.613 246.313 178.827 246.484C179.125 246.697 179.317 246.804 179.403 246.804C180.299 246.804 181.365 247.764 182.603 249.684C183.883 251.561 184.587 253.268 184.715 254.804C184.843 256.468 184.288 258.196 183.051 259.988C181.813 261.78 180.235 263.166 178.315 264.148C177.717 264.446 176.736 264.574 175.371 264.532C174.048 264.489 172.96 264.297 172.107 263.956C171.339 263.614 170.592 263.209 169.867 262.74C168.117 261.502 166.987 259.561 166.475 256.916C166.048 254.868 166.731 252.692 168.523 250.388C170.357 248.084 172.384 246.782 174.603 246.484C175.285 246.441 175.648 246.377 175.691 246.292ZM177.739 252.308C177.355 251.881 177.013 251.625 176.715 251.54C176.459 251.454 176.096 251.497 175.627 251.668C175.413 251.753 175.029 251.86 174.475 251.988C173.493 252.286 172.747 252.926 172.235 253.908C171.765 254.846 171.659 255.828 171.915 256.852C172.213 257.833 172.832 258.516 173.771 258.9C174.112 259.07 174.496 259.156 174.923 259.156C175.349 259.156 175.605 259.092 175.691 258.964C175.776 258.878 175.904 258.836 176.075 258.836C176.288 258.836 176.629 258.644 177.099 258.26C177.568 257.918 177.888 257.598 178.059 257.3C179.253 255.422 179.147 253.758 177.739 252.308Z" fill="#FFA83F"/>
</svg>
