<svg width="38" height="38" viewBox="0 0 38 38" fill="none" xmlns="http://www.w3.org/2000/svg">
<path d="M7.30867 28.5C6.57928 28.5 5.97075 28.2562 5.48308 27.7685C4.99542 27.2808 4.75106 26.6718 4.75 25.9413V12.0587C4.75 11.3293 4.99436 10.7207 5.48308 10.2331C5.97181 9.74542 6.57981 9.50106 7.30708 9.5H30.6929C31.4213 9.5 32.0293 9.74436 32.5169 10.2331C33.0046 10.7218 33.2489 11.3303 33.25 12.0587V25.9429C33.25 26.6713 33.0056 27.2798 32.5169 27.7685C32.0282 28.2572 31.4202 28.5011 30.6929 28.5H7.30867ZM7.30867 26.9167H30.6929C30.9357 26.9167 31.1589 26.8153 31.3627 26.6127C31.5664 26.41 31.6677 26.1862 31.6667 25.9413V12.0587C31.6667 11.8148 31.5653 11.5911 31.3627 11.3873C31.16 11.1836 30.9368 11.0823 30.6929 11.0833H7.30708C7.06431 11.0833 6.84106 11.1847 6.63733 11.3873C6.43361 11.59 6.33228 11.8138 6.33333 12.0587V25.9429C6.33333 26.1857 6.43467 26.4089 6.63733 26.6127C6.84 26.8164 7.06325 26.9177 7.30708 26.9167M13.0324 24.9692H24.9676V22.5308H13.0324V24.9692ZM8.28242 20.2192H10.7176V17.7808H8.28242V20.2192ZM13.0324 20.2192H15.4676V17.7808H13.0324V20.2192ZM17.7824 20.2192H20.2176V17.7808H17.7824V20.2192ZM22.5324 20.2192H24.9676V17.7808H22.5324V20.2192ZM27.2824 20.2192H29.7176V17.7808H27.2824V20.2192ZM8.28242 15.4692H10.7176V13.0308H8.28242V15.4692ZM13.0324 15.4692H15.4676V13.0308H13.0324V15.4692ZM17.7824 15.4692H20.2176V13.0308H17.7824V15.4692ZM22.5324 15.4692H24.9676V13.0308H22.5324V15.4692ZM27.2824 15.4692H29.7176V13.0308H27.2824V15.4692Z" fill="white"/>
</svg>
