<svg width="87" height="38" viewBox="0 0 87 38" fill="none" xmlns="http://www.w3.org/2000/svg">
<path d="M6.18296 8.94428L6.18025 8.94798L6.16762 8.96556C6.10195 9.0582 6.04051 9.15391 5.9835 9.25238C5.93507 9.33132 5.89253 9.41391 5.85625 9.49942C5.83278 9.55493 5.82556 9.58454 5.82285 9.59472V9.59842C5.83326 9.68021 5.86132 9.7586 5.90498 9.82788C5.97267 9.95093 6.06563 10.0795 6.18296 10.2396L6.19198 10.2507C6.29848 10.3969 6.42664 10.5718 6.52592 10.7531C6.627 10.9382 6.72447 11.1741 6.72447 11.4424C6.72447 11.6163 6.66581 11.7829 6.61707 11.8995C6.5649 12.0235 6.50397 12.1435 6.43476 12.2585C6.36396 12.3798 6.28777 12.4977 6.20643 12.6119L6.19018 12.635L6.18567 12.6424L6.18386 12.6443C6.11217 12.7425 6.00534 12.8076 5.88686 12.8251C5.76838 12.8427 5.64796 12.8112 5.5521 12.7377C5.45623 12.6642 5.39277 12.5547 5.37568 12.4332C5.35858 12.3118 5.38926 12.1883 5.46094 12.0901L5.46365 12.0864L5.47629 12.0688C5.54195 11.9761 5.60339 11.8804 5.6604 11.782C5.70883 11.703 5.75137 11.6204 5.78766 11.5349C5.81112 11.4794 5.81834 11.4498 5.82105 11.4396C5.81144 11.3566 5.78367 11.2769 5.73982 11.2065C5.65605 11.0629 5.56287 10.9254 5.46094 10.7947L5.45192 10.7836C5.32998 10.6239 5.21843 10.456 5.11799 10.2812C4.99506 10.0728 4.92667 9.83539 4.91943 9.59194C4.91943 9.418 4.9781 9.25146 5.02683 9.13488C5.08008 9.0072 5.14777 8.88137 5.20914 8.77589C5.28084 8.65514 5.35701 8.53724 5.43748 8.42245L5.46004 8.39007C5.53173 8.29179 5.63857 8.22674 5.75705 8.20921C5.87552 8.19169 5.99594 8.22313 6.09181 8.29662C6.18767 8.37012 6.25113 8.47964 6.26823 8.6011C6.28532 8.72256 6.25465 8.84601 6.18296 8.94428ZM8.89052 8.94428L8.88781 8.94798L8.87517 8.96556C8.80951 9.0582 8.74807 9.15391 8.69106 9.25238C8.64263 9.33132 8.60009 9.41391 8.5638 9.49942C8.54034 9.55493 8.53312 9.58454 8.53041 9.59472V9.59842C8.54082 9.68021 8.56888 9.7586 8.61254 9.82788C8.68023 9.95093 8.77319 10.0795 8.89052 10.2396L8.89954 10.2507C9.00604 10.3969 9.1342 10.5718 9.23347 10.7531C9.33456 10.9382 9.43203 11.1741 9.43203 11.4424C9.43203 11.6163 9.37336 11.7829 9.32463 11.8995C9.27246 12.0235 9.21153 12.1435 9.14232 12.2585C9.07151 12.3798 8.99532 12.4977 8.91398 12.6119L8.89774 12.635L8.89322 12.6424L8.89142 12.6443C8.81973 12.7425 8.71289 12.8076 8.59442 12.8251C8.47594 12.8427 8.35552 12.8112 8.25966 12.7377C8.16379 12.6642 8.10033 12.5547 8.08324 12.4332C8.06614 12.3118 8.09681 12.1883 8.1685 12.0901L8.17121 12.0864L8.18384 12.0688C8.24951 11.9761 8.31095 11.8804 8.36796 11.782C8.41639 11.703 8.45893 11.6204 8.49521 11.5349C8.51868 11.4794 8.5259 11.4498 8.52861 11.4396C8.519 11.3566 8.49123 11.2769 8.44738 11.2065C8.3636 11.0629 8.27043 10.9254 8.1685 10.7947L8.15948 10.7836C8.03754 10.6239 7.92599 10.456 7.82554 10.2812C7.70262 10.0728 7.63423 9.83539 7.62699 9.59194C7.62699 9.418 7.68565 9.25146 7.73439 9.13488C7.78764 9.0072 7.85533 8.88137 7.9167 8.77589C7.98839 8.65514 8.06456 8.53724 8.14504 8.42245L8.1676 8.39007C8.23929 8.29179 8.34612 8.22674 8.4646 8.20921C8.58308 8.19169 8.7035 8.22313 8.79936 8.29662C8.89523 8.37012 8.95869 8.47964 8.97578 8.6011C8.99288 8.72256 8.9622 8.84601 8.89052 8.94428ZM11.5981 8.94428L11.5954 8.94798L11.5827 8.96556C11.5171 9.0582 11.4556 9.15391 11.3986 9.25238C11.3502 9.33132 11.3076 9.41391 11.2714 9.49942C11.2479 9.55493 11.2407 9.58454 11.238 9.59472V9.59842C11.2484 9.68021 11.2764 9.7586 11.3201 9.82788C11.3878 9.95093 11.4807 10.0795 11.5981 10.2396L11.6071 10.2507C11.7136 10.3969 11.8418 10.5718 11.941 10.7531C12.0421 10.9382 12.1396 11.1741 12.1396 11.4424C12.1396 11.6163 12.0809 11.7829 12.0322 11.8995C11.98 12.0235 11.9191 12.1435 11.8499 12.2585C11.7794 12.3798 11.7035 12.4977 11.6224 12.6119L11.6053 12.635L11.6008 12.6424L11.599 12.6443C11.5273 12.7425 11.4204 12.8076 11.302 12.8251C11.1835 12.8427 11.0631 12.8112 10.9672 12.7377C10.8713 12.6642 10.8079 12.5547 10.7908 12.4332C10.7737 12.3118 10.8044 12.1883 10.8761 12.0901L10.8788 12.0864L10.8914 12.0688C10.9571 11.9761 11.0185 11.8804 11.0755 11.782C11.1239 11.703 11.1665 11.6204 11.2028 11.5349C11.2262 11.4794 11.2335 11.4498 11.2362 11.4396C11.2266 11.3566 11.1988 11.2769 11.1549 11.2065C11.0712 11.0629 10.978 10.9254 10.8761 10.7947L10.867 10.7836C10.7451 10.6239 10.6335 10.456 10.5331 10.2812C10.4102 10.0728 10.3418 9.83539 10.3345 9.59194C10.3345 9.418 10.3932 9.25146 10.4419 9.13488C10.4952 9.0072 10.5629 8.88137 10.6243 8.77589C10.6959 8.65514 10.7721 8.53724 10.8526 8.42245L10.8752 8.39007C10.9468 8.29179 11.0537 8.22674 11.1722 8.20921C11.2906 8.19169 11.4111 8.22313 11.5069 8.29662C11.6028 8.37012 11.6662 8.47964 11.6833 8.6011C11.7004 8.72256 11.6698 8.84601 11.5981 8.94428Z" fill="#FFA83F"/>
<path d="M14.8916 19.8987C14.8786 19.4659 14.7548 19.0437 14.5321 18.6724C14.3093 18.3011 13.9949 17.9931 13.6191 17.778C13.529 17.1623 13.22 16.5996 12.7487 16.1933C12.2774 15.7869 11.6754 15.564 11.0531 15.5654C10.8145 15.5661 10.577 15.597 10.3462 15.6573C9.85962 15.1928 9.21277 14.9336 8.54006 14.9336C7.86735 14.9336 7.2205 15.1928 6.73393 15.6573C6.50312 15.597 6.26559 15.5661 6.02703 15.5654C5.40229 15.5606 4.79689 15.7819 4.32263 16.1886C3.84837 16.5953 3.53729 17.1599 3.44684 17.778C3.06972 17.9922 2.75398 18.2998 2.52993 18.6712C2.30587 19.0425 2.18102 19.4652 2.16735 19.8987C1.97987 19.8987 1.80007 19.9732 1.6675 20.1058C1.53493 20.2383 1.46045 20.4182 1.46045 20.6056C1.46048 21.8465 1.78713 23.0654 2.40756 24.14C3.02799 25.2146 3.92035 26.107 4.99495 26.7274V27.6746C4.99495 27.8621 5.06943 28.0419 5.202 28.1745C5.33457 28.3071 5.51437 28.3815 5.70185 28.3815H11.3571C11.5445 28.3815 11.7243 28.3071 11.8569 28.1745C11.9895 28.0419 12.064 27.8621 12.064 27.6746V26.7274C13.1386 26.107 14.0309 25.2146 14.6514 24.14C15.2718 23.0654 15.5984 21.8465 15.5985 20.6056C15.5985 20.4182 15.524 20.2383 15.3914 20.1058C15.2588 19.9732 15.079 19.8987 14.8916 19.8987ZM3.58115 19.8987C3.59911 19.6754 3.6834 19.4625 3.82322 19.2874C3.96303 19.1124 4.15198 18.9831 4.36581 18.9161L4.95254 18.7323L4.83943 18.1315C4.84128 17.9792 4.8731 17.8288 4.93307 17.6889C4.99304 17.5489 5.08 17.4222 5.18896 17.3158C5.29793 17.2095 5.42678 17.1257 5.56815 17.0691C5.70952 17.0126 5.86064 16.9844 6.01289 16.9863C6.21697 16.9857 6.41821 17.0342 6.59962 17.1277L7.17221 17.4458L7.52566 16.9015C7.6362 16.7367 7.78559 16.6017 7.96065 16.5084C8.13571 16.415 8.33106 16.3662 8.52946 16.3662C8.72786 16.3662 8.9232 16.415 9.09826 16.5084C9.27333 16.6017 9.42272 16.7367 9.53326 16.9015L9.88671 17.4458L10.4593 17.1277C10.6407 17.0342 10.8419 16.9857 11.046 16.9863C11.3518 16.9825 11.6468 17.0988 11.8676 17.3104C12.0884 17.5219 12.2173 17.8117 12.2265 18.1173L12.1134 18.7182L12.6931 18.9161C12.9069 18.9831 13.0959 19.1124 13.2357 19.2874C13.3755 19.4625 13.4598 19.6754 13.4778 19.8987H3.58115Z" fill="#FFA83F"/>
<path d="M29.9701 7.648C31.3621 7.296 32.3781 8.072 33.0181 9.976C33.1941 10.52 33.2501 10.96 33.1861 11.296C33.1381 11.632 32.9221 12.144 32.5381 12.832C32.1221 13.568 31.5541 14.08 30.8341 14.368C30.1301 14.656 29.4501 14.72 28.7941 14.56C28.1381 14.4 27.5701 14.032 27.0901 13.456C26.6101 12.88 26.3701 12.176 26.3701 11.344C26.3701 10.8 26.3941 10.456 26.4421 10.312C26.6341 9.688 26.9861 9.152 27.4981 8.704C28.0101 8.256 28.6021 7.96 29.2741 7.816C29.3861 7.784 29.6181 7.728 29.9701 7.648ZM30.5221 9.832C30.2341 9.704 29.8421 9.72 29.3461 9.88C28.8661 10.04 28.5301 10.256 28.3381 10.528C28.1461 10.816 28.1461 11.2 28.3381 11.68C28.5461 12.144 28.8261 12.416 29.1781 12.496C29.6581 12.608 30.0981 12.472 30.4981 12.088C30.9141 11.704 31.1221 11.296 31.1221 10.864C31.1221 10.416 30.9221 10.072 30.5221 9.832ZM29.4181 14.896C30.0421 14.72 30.4581 14.744 30.6661 14.968C30.7461 15.048 30.7861 15.152 30.7861 15.28C30.8021 15.392 30.8101 15.744 30.8101 16.336C30.8101 17.12 30.8261 17.616 30.8581 17.824L30.8821 18.088L33.2101 18.064C34.7461 18.048 35.5301 18.064 35.5621 18.112C35.5941 18.16 35.6021 18.472 35.5861 19.048C35.5701 19.608 35.5461 19.904 35.5141 19.936C35.4341 20.016 33.8021 20.104 30.6181 20.2C27.4341 20.28 25.5061 20.296 24.8341 20.248C24.3221 20.216 24.0341 20.168 23.9701 20.104C23.9061 20.04 23.8661 19.768 23.8501 19.288C23.8501 19.24 23.8501 19.168 23.8501 19.072C23.8341 18.752 23.9061 18.568 24.0661 18.52C24.2421 18.456 24.8261 18.408 25.8181 18.376C26.0901 18.36 26.3061 18.352 26.4661 18.352C27.9381 18.304 28.6901 18.28 28.7221 18.28C28.7861 18.264 28.8501 17.408 28.9141 15.712C28.9301 15.392 28.9621 15.192 29.0101 15.112C29.0581 15.016 29.1941 14.944 29.4181 14.896ZM27.2581 21.88C27.3221 21.88 27.4181 21.872 27.5461 21.856C27.9461 21.824 28.1781 21.872 28.2421 22C28.3221 22.112 28.3701 22.552 28.3861 23.32C28.3861 23.544 28.3861 23.72 28.3861 23.848C28.4181 25.096 28.4501 25.776 28.4821 25.888C28.4981 25.968 28.6101 26.016 28.8181 26.032C29.0261 26.048 29.7461 26.04 30.9781 26.008C32.5461 25.992 33.4501 25.976 33.6901 25.96C33.9301 25.928 34.0661 25.992 34.0981 26.152C34.1301 26.328 34.1061 26.784 34.0261 27.52C34.0261 27.536 34.0261 27.552 34.0261 27.568C33.9941 27.776 33.8181 27.896 33.4981 27.928C33.1941 27.96 32.1141 27.976 30.2581 27.976C30.1301 27.976 30.0261 27.976 29.9461 27.976H26.3941L26.3221 27.568C26.2581 27.312 26.2181 26.336 26.2021 24.64C26.2021 22.928 26.2261 22.048 26.2741 22C26.3381 21.952 26.6661 21.912 27.2581 21.88ZM48.715 11.656C49.099 11.576 49.347 11.544 49.459 11.56C49.587 11.576 49.667 11.64 49.699 11.752C49.779 12.184 49.843 14.24 49.891 17.92C49.939 21.584 49.923 23.568 49.843 23.872C49.827 23.968 49.771 24.024 49.675 24.04C49.579 24.04 49.275 24.04 48.763 24.04C48.219 24.04 47.907 24.032 47.827 24.016C47.747 24 47.715 23.928 47.731 23.8C47.731 23.64 47.739 21.648 47.755 17.824C47.787 13.888 47.811 11.896 47.827 11.848C47.859 11.832 47.939 11.808 48.067 11.776C48.227 11.744 48.443 11.704 48.715 11.656ZM39.667 13.888C39.699 13.856 40.339 13.856 41.587 13.888C42.851 13.904 43.507 13.928 43.555 13.96C43.587 14.008 43.579 14.232 43.531 14.632C43.499 15.032 43.451 15.336 43.387 15.544C43.323 15.784 43.275 16.056 43.243 16.36C43.195 16.648 43.147 16.912 43.099 17.152C43.051 17.36 43.011 17.704 42.979 18.184C42.803 20.568 42.659 21.888 42.547 22.144C42.515 22.208 42.451 22.248 42.355 22.264C42.275 22.28 42.003 22.28 41.539 22.264C40.931 22.232 40.595 22.192 40.531 22.144C40.467 22.08 40.459 21.832 40.507 21.4C40.699 19.896 40.851 18.336 40.963 16.72L40.987 16.12L39.091 16.096C38.995 16.096 38.843 16.088 38.635 16.072C37.579 16.056 36.963 16.008 36.787 15.928C36.611 15.832 36.531 15.52 36.547 14.992C36.547 14.896 36.555 14.824 36.571 14.776V14.008L38.107 13.984C39.115 13.952 39.635 13.92 39.667 13.888ZM62.6673 7.984C62.9713 7.952 63.1553 7.944 63.2193 7.96C63.2833 7.96 63.3233 7.992 63.3393 8.056C63.4673 8.392 63.5313 9.272 63.5313 10.696C63.5313 10.76 63.5313 10.856 63.5313 10.984C63.5313 11.56 63.5473 11.896 63.5793 11.992C63.6273 12.072 63.7793 12.112 64.0353 12.112C64.0833 12.112 64.1233 12.112 64.1553 12.112C64.5553 12.112 65.1473 12.128 65.9313 12.16C66.6353 12.176 67.0513 12.208 67.1793 12.256C67.3073 12.288 67.3553 12.408 67.3233 12.616C67.2913 12.744 67.2593 12.968 67.2273 13.288C67.2273 13.336 67.2273 13.392 67.2273 13.456C67.1953 13.76 67.1153 13.936 66.9873 13.984C66.8753 14.032 66.4673 14.056 65.7633 14.056C65.6033 14.056 65.4753 14.056 65.3793 14.056C65.2353 14.056 65.0433 14.056 64.8033 14.056C64.5633 14.056 64.4033 14.048 64.3233 14.032C64.2433 14.016 64.1313 14.024 63.9873 14.056C63.8433 14.088 63.7553 14.104 63.7233 14.104C63.7073 14.088 63.6593 14.12 63.5793 14.2C63.4993 14.28 63.4593 14.336 63.4593 14.368C63.4593 14.384 63.4433 14.472 63.4113 14.632C63.3953 14.776 63.3873 14.888 63.3873 14.968C63.4033 15.032 63.4113 15.184 63.4113 15.424C63.4113 15.664 63.4113 15.864 63.4113 16.024C63.4113 16.136 63.4113 16.304 63.4113 16.528C63.4113 17.344 63.3793 17.824 63.3153 17.968C63.2673 18.096 63.0593 18.168 62.6913 18.184C62.5953 18.184 62.5233 18.192 62.4753 18.208C62.3793 18.208 62.2593 18.216 62.1153 18.232C61.8273 18.28 61.6513 18.232 61.5873 18.088C61.4753 17.832 61.4433 16.472 61.4913 14.008C61.4913 13.096 61.4993 12.36 61.5153 11.8L61.5633 8.128L61.9473 8.08C62.0913 8.064 62.3313 8.032 62.6673 7.984ZM57.2673 9.112C57.6033 9.048 57.9553 9.032 58.3233 9.064C58.6913 9.08 58.8913 9.12 58.9233 9.184C58.9713 9.28 59.0033 9.664 59.0193 10.336C59.0353 11.008 59.0273 11.568 58.9953 12.016C58.9313 12.64 58.8833 13.616 58.8513 14.944C58.8513 15.024 58.8513 15.144 58.8513 15.304C58.8193 16.248 58.7873 16.8 58.7553 16.96C58.7233 17.12 58.6033 17.224 58.3953 17.272C58.3633 17.288 58.3393 17.296 58.3233 17.296C57.9073 17.408 56.8353 17.472 55.1073 17.488C53.3953 17.504 52.4833 17.464 52.3713 17.368C52.2593 17.288 52.1873 17.08 52.1553 16.744C52.1233 16.392 52.1073 15.728 52.1073 14.752C52.1073 13.52 52.0913 12.616 52.0593 12.04C52.0433 11.912 52.0273 11.736 52.0113 11.512C51.9313 10.424 51.9233 9.792 51.9873 9.616C52.0673 9.44 52.3473 9.344 52.8273 9.328C52.9233 9.328 52.9953 9.328 53.0433 9.328C53.5073 9.296 53.7713 9.328 53.8353 9.424C53.8993 9.52 53.9473 9.904 53.9793 10.576C54.0113 11.2 54.0273 11.52 54.0273 11.536C54.0433 11.552 54.3953 11.552 55.0833 11.536C55.7873 11.52 56.2433 11.504 56.4513 11.488L56.9793 11.416L57.0033 10.264V9.136L57.2673 9.112ZM56.9073 14.368L56.9313 13.432H55.9953C55.3713 13.432 54.9153 13.456 54.6273 13.504L54.1713 13.552V14.488C54.1713 14.952 54.1713 15.224 54.1713 15.304C54.1873 15.384 54.2353 15.432 54.3153 15.448C54.4113 15.48 54.8433 15.48 55.6113 15.448C56.3953 15.4 56.8033 15.36 56.8353 15.328C56.8673 15.296 56.8913 14.976 56.9073 14.368ZM60.9873 20.032C61.7553 19.936 62.2433 20.008 62.4513 20.248C62.5313 20.36 62.5473 21.512 62.4993 23.704C62.4513 25.896 62.3793 27.096 62.2833 27.304C62.2033 27.432 61.9953 27.504 61.6593 27.52C61.3393 27.552 60.3713 27.568 58.7553 27.568L55.7073 27.592L55.6593 27.352C55.5793 27.064 55.5153 25.856 55.4673 23.728C55.4193 21.584 55.4353 20.496 55.5153 20.464C55.5633 20.448 55.7953 20.408 56.2113 20.344C56.6433 20.28 56.9153 20.248 57.0273 20.248C57.1073 20.248 57.1633 20.304 57.1953 20.416C57.2273 20.512 57.2593 20.76 57.2913 21.16C57.3233 21.64 57.3553 21.904 57.3873 21.952C57.4353 21.984 57.9953 21.984 59.0673 21.952L60.6753 21.904V21.064C60.6753 20.584 60.6833 20.296 60.6993 20.2C60.7313 20.104 60.8273 20.048 60.9873 20.032ZM60.4113 24.88C60.4273 24.4 60.4033 24.136 60.3393 24.088C60.2913 24.024 59.8833 23.992 59.1153 23.992C59.0353 23.992 58.9233 23.992 58.7793 23.992C58.1393 23.992 57.7633 24.024 57.6513 24.088C57.5553 24.136 57.5153 24.328 57.5313 24.664C57.5313 24.728 57.5313 24.784 57.5313 24.832C57.5313 24.88 57.5313 24.944 57.5313 25.024C57.5473 25.392 57.5953 25.6 57.6753 25.648C57.7713 25.712 58.0753 25.736 58.5873 25.72C58.6993 25.72 58.7873 25.72 58.8513 25.72C58.9313 25.72 59.0353 25.712 59.1633 25.696C59.7713 25.68 60.1233 25.64 60.2193 25.576C60.3313 25.528 60.3953 25.344 60.4113 25.024C60.4113 24.96 60.4113 24.912 60.4113 24.88ZM79.4285 8.128C79.7645 8.08 79.9565 8.08 80.0045 8.128C80.0685 8.16 80.1165 8.344 80.1485 8.68C80.2925 9.768 80.3645 10.76 80.3645 11.656C80.3645 12.072 80.3725 12.32 80.3885 12.4C80.4045 12.464 80.4685 12.496 80.5805 12.496C80.8205 12.496 81.3565 12.52 82.1885 12.568C83.0205 12.6 83.5165 12.624 83.6765 12.64C83.8845 12.672 83.9965 12.728 84.0125 12.808C84.0445 12.888 84.0365 13.12 83.9885 13.504C83.9885 13.552 83.9885 13.608 83.9885 13.672C83.9565 13.864 83.9325 14 83.9165 14.08C83.9165 14.144 83.8845 14.224 83.8205 14.32C83.7565 14.416 83.7085 14.472 83.6765 14.488C83.6445 14.504 83.5405 14.528 83.3645 14.56C83.1885 14.576 83.0285 14.584 82.8845 14.584C82.7565 14.584 82.5245 14.576 82.1885 14.56C82.0765 14.56 81.9885 14.56 81.9245 14.56C80.8845 14.528 80.3485 14.52 80.3165 14.536C80.2845 14.552 80.2525 15.032 80.2205 15.976C80.1725 17.752 80.1005 18.664 80.0045 18.712C79.8445 18.776 79.5245 18.808 79.0445 18.808C78.5805 18.792 78.3245 18.744 78.2765 18.664C78.2125 18.568 78.1965 16.808 78.2285 13.384L78.2765 8.272L78.6365 8.224C78.7005 8.208 78.8285 8.192 79.0205 8.176C79.2125 8.144 79.3485 8.128 79.4285 8.128ZM71.3165 9.448C71.3645 9.384 71.4125 9.36 71.4605 9.376C71.5245 9.376 71.7325 9.416 72.0845 9.496C72.5325 9.592 72.7965 9.68 72.8765 9.76C72.9565 9.824 72.9965 10.008 72.9965 10.312C72.9965 10.584 73.0285 10.824 73.0925 11.032C73.1725 11.24 73.3325 11.552 73.5725 11.968C73.9085 12.496 74.2445 13.088 74.5805 13.744C75.0925 14.768 75.4685 15.456 75.7085 15.808C75.8685 16.048 75.9405 16.208 75.9245 16.288C75.9245 16.368 75.8445 16.464 75.6845 16.576C75.5245 16.672 75.3325 16.848 75.1085 17.104C74.9165 17.328 74.7805 17.432 74.7005 17.416C74.6205 17.4 74.4765 17.224 74.2685 16.888C73.7885 16.12 73.4765 15.616 73.3325 15.376C72.9325 14.752 72.5965 14.176 72.3245 13.648C71.9725 12.96 71.7965 12.8 71.7965 13.168C71.7965 13.232 71.7805 13.288 71.7485 13.336C71.6045 13.496 71.3965 14.064 71.1245 15.04C71.0605 15.248 71.0125 15.384 70.9805 15.448C70.9005 15.656 70.8525 15.792 70.8365 15.856C70.6925 16.32 70.5245 16.744 70.3325 17.128C70.1565 17.496 70.0285 17.68 69.9485 17.68C69.9165 17.68 69.6685 17.56 69.2045 17.32C68.7725 17.096 68.5245 16.984 68.4605 16.984C68.2685 16.984 68.2285 16.816 68.3405 16.48C68.4045 16.272 68.5005 16.024 68.6285 15.736C68.6605 15.656 68.7485 15.44 68.8925 15.088C68.9885 14.864 69.0845 14.632 69.1805 14.392C69.2605 14.2 69.3005 14.096 69.3005 14.08C69.3005 14.048 69.4285 13.76 69.6845 13.216C69.7645 13.024 69.8685 12.784 69.9965 12.496C70.2205 11.936 70.5405 11.192 70.9565 10.264C71.1005 9.944 71.1725 9.768 71.1725 9.736C71.2205 9.608 71.2685 9.512 71.3165 9.448ZM76.1405 20.536C76.2045 20.472 76.3965 20.456 76.7165 20.488C77.0365 20.504 77.2365 20.544 77.3165 20.608C77.4285 20.688 77.5005 20.728 77.5325 20.728C77.8685 20.728 78.2685 21.088 78.7325 21.808C79.2125 22.512 79.4765 23.152 79.5245 23.728C79.5725 24.352 79.3645 25 78.9005 25.672C78.4365 26.344 77.8445 26.864 77.1245 27.232C76.9005 27.344 76.5325 27.392 76.0205 27.376C75.5245 27.36 75.1165 27.288 74.7965 27.16C74.5085 27.032 74.2285 26.88 73.9565 26.704C73.3005 26.24 72.8765 25.512 72.6845 24.52C72.5245 23.752 72.7805 22.936 73.4525 22.072C74.1405 21.208 74.9005 20.72 75.7325 20.608C75.9885 20.592 76.1245 20.568 76.1405 20.536ZM76.9085 22.792C76.7645 22.632 76.6365 22.536 76.5245 22.504C76.4285 22.472 76.2925 22.488 76.1165 22.552C76.0365 22.584 75.8925 22.624 75.6845 22.672C75.3165 22.784 75.0365 23.024 74.8445 23.392C74.6685 23.744 74.6285 24.112 74.7245 24.496C74.8365 24.864 75.0685 25.12 75.4205 25.264C75.5485 25.328 75.6925 25.36 75.8525 25.36C76.0125 25.36 76.1085 25.336 76.1405 25.288C76.1725 25.256 76.2205 25.24 76.2845 25.24C76.3645 25.24 76.4925 25.168 76.6685 25.024C76.8445 24.896 76.9645 24.776 77.0285 24.664C77.4765 23.96 77.4365 23.336 76.9085 22.792Z" fill="#FFA83F"/>
</svg>
