<svg width="28" height="28" viewBox="0 0 28 28" fill="none" xmlns="http://www.w3.org/2000/svg">
<path d="M23.2812 2.1875C21.2673 2.1875 19.3358 2.98755 17.9117 4.41166C16.4876 5.83576 15.6875 7.76726 15.6875 9.78125V12.3125C15.6875 12.7601 15.8653 13.1893 16.1818 13.5057C16.4982 13.8222 16.9274 14 17.375 14H18.968L18.9342 14.3223C18.8566 15.0851 18.7503 16.1144 18.644 17.1911C18.4364 19.3089 18.2188 21.6849 18.2188 22.4375C18.2188 23.3326 18.5743 24.191 19.2073 24.824C19.8402 25.4569 20.6986 25.8125 21.5938 25.8125C22.4889 25.8125 23.3473 25.4569 23.9802 24.824C24.6132 24.191 24.9688 23.3326 24.9688 22.4375C24.9688 21.6849 24.7511 19.3089 24.5435 17.1894C24.4188 15.9289 24.2894 14.6689 24.1554 13.4094L24.125 13.1107V3.03125C24.125 2.80747 24.0361 2.59286 23.8779 2.43463C23.7196 2.27639 23.505 2.1875 23.2812 2.1875Z" fill="white"/>
<path d="M11.8451 2.27863C11.9567 2.33398 12.0547 2.41338 12.1321 2.51113C12.2094 2.60887 12.2641 2.72253 12.2922 2.84394C12.3226 2.97725 13.1562 6.54463 13.1562 8.9375C13.1562 10.5406 12.4104 11.9699 11.2494 12.8964C10.8275 13.2339 10.625 13.6018 10.625 13.9089V14.729C10.625 14.7684 10.6273 14.8055 10.6318 14.8404C10.6891 15.2589 10.8967 16.8131 11.0907 18.4246C11.2814 20.0058 11.4688 21.7304 11.4688 22.4375C11.4688 23.3326 11.1132 24.1911 10.4802 24.824C9.8473 25.4569 8.98886 25.8125 8.09375 25.8125C7.19864 25.8125 6.3402 25.4569 5.70726 24.824C5.07433 24.1911 4.71875 23.3326 4.71875 22.4375C4.71875 21.7288 4.90606 20.0075 5.09675 18.4246C5.29081 16.8131 5.49838 15.2589 5.55575 14.8404L5.5625 14.729V13.9089C5.5625 13.6018 5.36 13.2339 4.93813 12.8964C4.34325 12.4222 3.8629 11.82 3.53277 11.1346C3.20264 10.4492 3.03122 9.69825 3.03125 8.9375C3.03125 6.55306 3.85813 3.00425 3.89525 2.84563C3.93912 2.65805 4.04525 2.49086 4.19634 2.37134C4.34742 2.25182 4.53454 2.18702 4.72719 2.1875C5.19969 2.1875 5.58275 2.57057 5.58275 3.04307V8.10219C5.5761 8.21615 5.59287 8.33026 5.63204 8.43748C5.67121 8.5447 5.73193 8.64276 5.81047 8.72559C5.88901 8.80843 5.9837 8.87429 6.08868 8.91911C6.19366 8.96393 6.30672 8.98675 6.42087 8.98617C6.53502 8.9856 6.64784 8.96163 6.75236 8.91575C6.85689 8.86987 6.9509 8.80306 7.0286 8.71943C7.1063 8.6358 7.16603 8.53713 7.20411 8.42952C7.24219 8.32191 7.25781 8.20764 7.25 8.09375V3.03125C7.25 2.80748 7.33889 2.59287 7.49713 2.43463C7.65536 2.2764 7.86997 2.1875 8.09375 2.1875C8.31753 2.1875 8.53214 2.2764 8.69037 2.43463C8.84861 2.59287 8.9375 2.80748 8.9375 3.03125V8.13763C8.9422 8.35917 9.03471 8.56976 9.19469 8.72309C9.35466 8.87642 9.56899 8.95992 9.79053 8.95522C10.0121 8.95052 10.2227 8.85801 10.376 8.69803C10.5293 8.53806 10.6128 8.32373 10.6081 8.10219V3.03969C10.6081 2.56888 10.9895 2.1875 11.462 2.1875C11.4991 2.1875 11.6645 2.1875 11.8451 2.27863Z" fill="white"/>
</svg>
