<svg width="58" height="58" viewBox="0 0 58 58" fill="none" xmlns="http://www.w3.org/2000/svg">
<path d="M18.125 10.875C18.125 7.99077 19.2708 5.22467 21.3102 3.18521C23.3497 1.14576 26.1158 0 29 0C31.8842 0 34.6503 1.14576 36.6898 3.18521C38.7292 5.22467 39.875 7.99077 39.875 10.875V29C39.875 31.8842 38.7292 34.6503 36.6898 36.6898C34.6503 38.7292 31.8842 39.875 29 39.875C26.1158 39.875 23.3497 38.7292 21.3102 36.6898C19.2708 34.6503 18.125 31.8842 18.125 29V10.875Z" fill="#252525"/>
<path d="M12.6875 23.5625C13.1682 23.5625 13.6292 23.7535 13.9691 24.0934C14.309 24.4333 14.5 24.8943 14.5 25.375V29C14.5 32.8456 16.0277 36.5338 18.747 39.253C21.4662 41.9723 25.1544 43.5 29 43.5C32.8456 43.5 36.5338 41.9723 39.253 39.253C41.9723 36.5338 43.5 32.8456 43.5 29V25.375C43.5 24.8943 43.691 24.4333 44.0309 24.0934C44.3708 23.7535 44.8318 23.5625 45.3125 23.5625C45.7932 23.5625 46.2542 23.7535 46.5941 24.0934C46.934 24.4333 47.125 24.8943 47.125 25.375V29C47.1251 33.4933 45.4561 37.8264 42.4419 41.1588C39.4278 44.4911 35.2833 46.585 30.8125 47.0344V54.375H41.6875C42.1682 54.375 42.6292 54.566 42.9691 54.9059C43.309 55.2458 43.5 55.7068 43.5 56.1875C43.5 56.6682 43.309 57.1292 42.9691 57.4691C42.6292 57.809 42.1682 58 41.6875 58H16.3125C15.8318 58 15.3708 57.809 15.0309 57.4691C14.691 57.1292 14.5 56.6682 14.5 56.1875C14.5 55.7068 14.691 55.2458 15.0309 54.9059C15.3708 54.566 15.8318 54.375 16.3125 54.375H27.1875V47.0344C22.7167 46.585 18.5722 44.4911 15.5581 41.1588C12.5439 37.8264 10.8749 33.4933 10.875 29V25.375C10.875 24.8943 11.066 24.4333 11.4059 24.0934C11.7458 23.7535 12.2068 23.5625 12.6875 23.5625Z" fill="#252525"/>
</svg>
