<svg width="17" height="22" viewBox="0 0 17 22" fill="none" xmlns="http://www.w3.org/2000/svg">
<path d="M8.5 0C3.91523 0 0.25 3.66523 0.25 8.25C0.25 9.83555 0.722656 11.0602 1.54336 12.302L7.63203 21.5402C7.8168 21.8195 8.13477 22 8.5 22C8.86523 22 9.1875 21.8152 9.36797 21.5402L15.4566 12.302C16.2773 11.0602 16.75 9.83555 16.75 8.25C16.75 3.66523 13.0848 0 8.5 0ZM8.5 12.8305C5.96914 12.8305 3.91523 10.7766 3.91523 8.24141C3.91523 5.70625 5.96914 3.65234 8.5 3.65234C11.0309 3.65234 13.0848 5.70625 13.0848 8.24141C13.0848 10.7766 11.0309 12.8305 8.5 12.8305Z" fill="#F5F5F5"/>
</svg>
