<svg width="20" height="21" viewBox="0 0 20 21" fill="none" xmlns="http://www.w3.org/2000/svg">
<path d="M10 0.5C5.83203 0.5 2.5 3.83203 2.5 8C2.5 9.44141 2.92969 10.5547 3.67578 11.6836L9.21094 20.082C9.37891 20.3359 9.66797 20.5 10 20.5C10.332 20.5 10.625 20.332 10.7891 20.082L16.3242 11.6836C17.0703 10.5547 17.5 9.44141 17.5 8C17.5 3.83203 14.168 0.5 10 0.5ZM10 12.1641C7.69922 12.1641 5.83203 10.2969 5.83203 7.99219C5.83203 5.6875 7.69922 3.82031 10 3.82031C12.3008 3.82031 14.168 5.6875 14.168 7.99219C14.168 10.2969 12.3008 12.1641 10 12.1641Z" fill="#FF8040"/>
</svg>
