<svg width="75" height="20" viewBox="0 0 75 20" fill="none" xmlns="http://www.w3.org/2000/svg">
<path d="M2.38211 12.68C1.58211 12.3867 0.975445 12.0267 0.562111 11.6C0.482111 11.52 0.442111 11.44 0.442111 11.36C0.442111 11.24 0.562111 11.0267 0.802111 10.72C1.68211 10.8667 2.86878 10.94 4.36211 10.94H8.86211V9.08C7.64878 8.92 6.68211 8.46667 5.96211 7.72C5.25544 6.96 4.90211 6.10667 4.90211 5.16C4.90211 4.10667 5.32878 3.18667 6.18211 2.4C7.04878 1.6 8.20878 1.2 9.66211 1.2C11.1021 1.2 12.2554 1.6 13.1221 2.4C13.9888 3.18667 14.4221 4.10667 14.4221 5.16C14.4221 6.10667 14.0688 6.96 13.3621 7.72C12.6554 8.46667 11.6954 8.92 10.4821 9.08V10.94H14.6821C15.1354 10.94 15.6288 10.9267 16.1621 10.9C16.6954 10.86 17.1421 10.8267 17.5021 10.8C17.8621 10.7733 18.0688 10.76 18.1221 10.76C18.2688 10.76 18.3688 10.78 18.4221 10.82C18.4754 10.8467 18.5021 10.92 18.5021 11.04C18.5021 11.4133 18.4221 11.8533 18.2621 12.36C16.6888 12.2933 15.6554 12.26 15.1621 12.26H4.62211C4.08878 12.26 3.34211 12.4 2.38211 12.68ZM7.36211 7.02C7.92211 7.52667 8.68878 7.78 9.66211 7.78C10.6354 7.78 11.4021 7.52667 11.9621 7.02C12.5221 6.5 12.8021 5.88 12.8021 5.16C12.8021 4.44 12.5221 3.82667 11.9621 3.32C11.4021 2.8 10.6354 2.54 9.66211 2.54C8.68878 2.54 7.92211 2.8 7.36211 3.32C6.80211 3.82667 6.52211 4.44 6.52211 5.16C6.52211 5.88 6.80211 6.5 7.36211 7.02ZM6.10211 18.82C5.62211 18.82 5.27544 18.7133 5.06211 18.5C4.86211 18.2867 4.76211 17.9467 4.76211 17.48V15.46C4.76211 15.18 4.68878 14.9933 4.54211 14.9C4.26211 14.7 3.88878 14.58 3.42211 14.54C3.44878 14.2467 3.49544 14.0267 3.56211 13.88C3.61544 13.8 3.68878 13.76 3.78211 13.76C4.80878 13.76 5.58211 13.8533 6.10211 14.04C6.30211 14.1067 6.40211 14.22 6.40211 14.38V17.48H13.4021C13.6154 17.48 14.0288 17.4533 14.6421 17.4C15.2554 17.3467 15.5821 17.32 15.6221 17.32C15.8488 17.32 15.9621 17.4 15.9621 17.56C15.9621 17.9867 15.8888 18.4067 15.7421 18.82H6.10211ZM32.5898 19.52V2.3C32.5898 2.1 32.4764 1.91333 32.2498 1.74C31.9431 1.51333 31.4831 1.33333 30.8698 1.2C30.9631 0.853333 31.0498 0.613333 31.1298 0.48C31.1831 0.399999 31.2564 0.359999 31.3498 0.359999C31.6564 0.359999 32.0831 0.413332 32.6298 0.519999C33.1898 0.626666 33.6164 0.733333 33.9098 0.84C34.1098 0.906666 34.2098 1.01333 34.2098 1.16V16.22C34.2098 16.94 34.1364 17.92 33.9898 19.16C33.9631 19.36 33.8898 19.4733 33.7698 19.5C33.4364 19.5933 33.0431 19.6 32.5898 19.52ZM21.1098 13.92C20.9231 14.0267 20.7698 14.02 20.6498 13.9C20.5964 13.8467 20.4964 13.7133 20.3498 13.5C20.2031 13.2733 20.1164 13.12 20.0898 13.04C21.5564 12.0933 23.0431 10.82 24.5498 9.22C26.0564 7.62 27.1031 6.08 27.6898 4.6H23.4498C23.0098 4.6 22.5231 4.69333 21.9898 4.88C21.5364 4.68 21.1031 4.38667 20.6898 4C20.6231 3.93333 20.5898 3.87333 20.5898 3.82C20.5898 3.63333 20.6898 3.4 20.8898 3.12C21.3298 3.2 22.1364 3.24 23.3098 3.24H27.4898C27.6631 3.24 27.9631 3.22667 28.3898 3.2C28.8298 3.17333 29.1098 3.16 29.2298 3.16C29.6431 3.16 29.7831 3.42 29.6498 3.94C29.2231 5.62 28.0898 7.48667 26.2498 9.54C24.4098 11.58 22.6964 13.04 21.1098 13.92ZM50.372 10.8V2.26C50.372 2.06 50.2586 1.87333 50.032 1.7C49.7253 1.47333 49.2653 1.29333 48.652 1.16C48.732 0.853332 48.8186 0.626666 48.912 0.48C48.9653 0.399999 49.0386 0.359999 49.132 0.359999C49.4386 0.359999 49.8653 0.413332 50.412 0.519999C50.972 0.626666 51.3986 0.733333 51.692 0.84C51.892 0.906666 51.992 1.01333 51.992 1.16V5.1H52.912C53.2186 5.1 53.6653 5.06667 54.252 5C54.852 4.93333 55.1586 4.9 55.172 4.9C55.3186 4.9 55.4186 4.92 55.472 4.96C55.5253 4.98667 55.552 5.06 55.552 5.18C55.552 5.46 55.472 5.85333 55.312 6.36H51.992V7.5C51.992 8.20667 51.9186 9.18667 51.772 10.44C51.7453 10.64 51.672 10.7533 51.552 10.78C51.2186 10.8733 50.8253 10.88 50.372 10.8ZM39.592 10.3C39.0053 10.3 38.712 9.94 38.712 9.22V4.08C38.712 3.65333 38.3386 3.37333 37.592 3.24C37.6186 2.98667 37.6853 2.77333 37.792 2.6C37.8453 2.50667 37.9253 2.46 38.032 2.46C38.672 2.46 39.352 2.58667 40.072 2.84C40.232 2.89333 40.312 3.01333 40.312 3.2V4.94H45.352V3.28C45.352 2.85333 44.9786 2.57333 44.232 2.44C44.2586 2.18667 44.3253 1.97333 44.432 1.8C44.4853 1.70667 44.5653 1.66 44.672 1.66C45.312 1.66 45.992 1.78667 46.712 2.04C46.872 2.10667 46.952 2.22667 46.952 2.4V9.68C46.952 10.0933 46.752 10.3 46.352 10.3H39.592ZM40.312 9H45.352V6.24H40.312V9ZM42.872 19.12C42.2853 19.12 41.992 18.76 41.992 18.04V13.52C41.992 13 41.632 12.6933 40.912 12.6C40.9386 12.3067 40.9986 12.0933 41.092 11.96C41.1453 11.88 41.212 11.84 41.292 11.84C42.1186 11.8667 42.8053 11.9933 43.352 12.22C43.512 12.2867 43.592 12.4133 43.592 12.6V14.22H50.192V13.02C50.192 12.5 49.832 12.1933 49.112 12.1C49.1386 11.8067 49.1986 11.5933 49.292 11.46C49.3453 11.38 49.412 11.34 49.492 11.34C50.3186 11.3667 51.0053 11.4933 51.552 11.72C51.712 11.7867 51.792 11.9133 51.792 12.1V18.5C51.792 18.9133 51.592 19.12 51.192 19.12H42.872ZM43.592 17.8H50.192V15.54H43.592V17.8ZM69.1949 12.32V2.26C69.1949 2.06 69.0816 1.87333 68.8549 1.7C68.5483 1.47333 68.0883 1.29333 67.4749 1.16C67.5549 0.853332 67.6416 0.626666 67.7349 0.48C67.7883 0.399999 67.8616 0.359999 67.9549 0.359999C68.2616 0.359999 68.6883 0.413332 69.2349 0.519999C69.7949 0.626666 70.2216 0.733333 70.5149 0.84C70.7149 0.906666 70.8149 1.01333 70.8149 1.16V5.74H71.7349C72.0416 5.74 72.4883 5.70667 73.0749 5.64C73.6749 5.57333 73.9816 5.54 73.9949 5.54C74.1416 5.54 74.2416 5.56 74.2949 5.6C74.3483 5.62667 74.3749 5.7 74.3749 5.82C74.3749 6.1 74.2949 6.49333 74.1349 7H70.8149V9.02C70.8149 9.72667 70.7416 10.7067 70.5949 11.96C70.5683 12.16 70.4949 12.2733 70.3749 12.3C70.0416 12.3933 69.6483 12.4 69.1949 12.32ZM56.9949 11.36C56.8616 11.2533 56.6216 11.0067 56.2749 10.62C57.4083 9.68667 58.6149 8.44667 59.8949 6.9C61.1883 5.35333 61.8349 4.25333 61.8349 3.6C61.8349 3.24 61.3883 2.88 60.4949 2.52C60.6283 2.28 60.7616 2.08 60.8949 1.92C60.9483 1.86667 61.0016 1.84 61.0549 1.84C61.2949 1.84 61.7016 1.94667 62.2749 2.16C62.8616 2.36 63.2949 2.56 63.5749 2.76C63.7216 2.86667 63.7949 3.04 63.7949 3.28C63.7949 3.8 63.4483 4.57333 62.7549 5.6C64.3816 7.08 65.8083 8.36 67.0349 9.44C67.1816 9.57333 67.1816 9.71333 67.0349 9.86C66.8083 10.1 66.4749 10.4133 66.0349 10.8C64.4349 9.10667 63.0949 7.71333 62.0149 6.62C61.3083 7.54 60.5083 8.45333 59.6149 9.36C58.7216 10.2667 57.9949 10.9267 57.4349 11.34C57.2616 11.46 57.1149 11.4667 56.9949 11.36ZM69.2549 18.44C68.4016 19.2 67.2683 19.58 65.8549 19.58C64.4416 19.58 63.3083 19.2 62.4549 18.44C61.6016 17.6933 61.1749 16.8 61.1749 15.76C61.1749 14.72 61.6016 13.8267 62.4549 13.08C63.3083 12.32 64.4416 11.94 65.8549 11.94C67.2683 11.94 68.4016 12.32 69.2549 13.08C70.1083 13.8267 70.5349 14.72 70.5349 15.76C70.5349 16.8 70.1083 17.6933 69.2549 18.44ZM63.6149 17.5C64.1749 17.9933 64.9216 18.24 65.8549 18.24C66.7883 18.24 67.5283 17.9933 68.0749 17.5C68.6349 17.02 68.9149 16.44 68.9149 15.76C68.9149 15.08 68.6349 14.5 68.0749 14.02C67.5283 13.5267 66.7883 13.28 65.8549 13.28C64.9216 13.28 64.1749 13.5267 63.6149 14.02C63.0683 14.5 62.7949 15.08 62.7949 15.76C62.7949 16.44 63.0683 17.02 63.6149 17.5Z" fill="#FFA83F"/>
</svg>
