<svg width="87" height="26" viewBox="0 0 87 26" fill="none" xmlns="http://www.w3.org/2000/svg">
<path d="M6.13627 2.94392L6.13356 2.94762L6.12092 2.9652C6.05526 3.05783 5.99382 3.15354 5.93681 3.25202C5.88838 3.33096 5.84584 3.41354 5.80956 3.49905C5.78609 3.55457 5.77887 3.58418 5.77616 3.59435V3.59805C5.78657 3.67984 5.81463 3.75823 5.85829 3.82751C5.92598 3.95057 6.01894 4.07917 6.13627 4.23924L6.14529 4.25034C6.25179 4.39653 6.37995 4.57139 6.47923 4.75274C6.58031 4.93779 6.67778 5.17372 6.67778 5.44203C6.67778 5.61598 6.61912 5.78252 6.57038 5.8991C6.51821 6.02315 6.45728 6.14313 6.38807 6.25809C6.31727 6.37941 6.24107 6.49735 6.15973 6.61152L6.14349 6.63465L6.13898 6.64206L6.13717 6.64391C6.06548 6.74218 5.95865 6.80724 5.84017 6.82477C5.72169 6.84229 5.60127 6.81085 5.50541 6.73735C5.40954 6.66386 5.34608 6.55434 5.32899 6.43288C5.31189 6.31142 5.34256 6.18797 5.41425 6.08969L5.41696 6.08599L5.4296 6.06841C5.49526 5.97578 5.5567 5.88007 5.61371 5.78159C5.66214 5.70265 5.70468 5.62007 5.74096 5.53456C5.76443 5.47904 5.77165 5.44944 5.77436 5.43926C5.76475 5.35626 5.73698 5.27656 5.69313 5.2061C5.60935 5.06256 5.51618 4.925 5.41425 4.79437L5.40523 4.78327C5.28329 4.62349 5.17174 4.45566 5.0713 4.28087C4.94837 4.07244 4.87998 3.83503 4.87274 3.59158C4.87274 3.41763 4.93141 3.25109 4.98014 3.13451C5.03339 3.00683 5.10108 2.881 5.16245 2.77553C5.23415 2.65478 5.31031 2.53688 5.39079 2.42209L5.41335 2.3897C5.48504 2.29143 5.59187 2.22637 5.71035 2.20885C5.82883 2.19132 5.94925 2.22276 6.04511 2.29626C6.14098 2.36975 6.20444 2.47927 6.22153 2.60073C6.23863 2.72219 6.20796 2.84564 6.13627 2.94392ZM8.84382 2.94392L8.84112 2.94762L8.82848 2.9652C8.76281 3.05783 8.70138 3.15354 8.64437 3.25202C8.59594 3.33096 8.5534 3.41354 8.51711 3.49905C8.49365 3.55457 8.48643 3.58418 8.48372 3.59435V3.59805C8.49413 3.67984 8.52218 3.75823 8.56585 3.82751C8.63354 3.95057 8.7265 4.07917 8.84382 4.23924L8.85285 4.25034C8.95935 4.39653 9.0875 4.57139 9.18678 4.75274C9.28786 4.93779 9.38533 5.17372 9.38533 5.44203C9.38533 5.61598 9.32667 5.78252 9.27794 5.8991C9.22577 6.02315 9.16484 6.14313 9.09563 6.25809C9.02482 6.37941 8.94863 6.49735 8.86729 6.61152L8.85104 6.63465L8.84653 6.64206L8.84473 6.64391C8.77304 6.74218 8.6662 6.80724 8.54772 6.82477C8.42925 6.84229 8.30883 6.81085 8.21296 6.73735C8.1171 6.66386 8.05364 6.55434 8.03654 6.43288C8.01945 6.31142 8.05012 6.18797 8.12181 6.08969L8.12452 6.08599L8.13715 6.06841C8.20282 5.97578 8.26426 5.88007 8.32127 5.78159C8.3697 5.70265 8.41223 5.62007 8.44852 5.53456C8.47199 5.47904 8.47921 5.44944 8.48191 5.43926C8.4723 5.35626 8.44454 5.27656 8.40069 5.2061C8.31691 5.06256 8.22374 4.925 8.12181 4.79437L8.11278 4.78327C7.99085 4.62349 7.8793 4.45566 7.77885 4.28087C7.65593 4.07244 7.58754 3.83503 7.5803 3.59158C7.5803 3.41763 7.63896 3.25109 7.6877 3.13451C7.74095 3.00683 7.80863 2.881 7.87001 2.77553C7.9417 2.65478 8.01787 2.53688 8.09834 2.42209L8.12091 2.3897C8.1926 2.29143 8.29943 2.22637 8.41791 2.20885C8.53639 2.19132 8.6568 2.22276 8.75267 2.29626C8.84853 2.36975 8.91199 2.47927 8.92909 2.60073C8.94618 2.72219 8.91551 2.84564 8.84382 2.94392ZM11.5514 2.94392L11.5487 2.94762L11.536 2.9652C11.4704 3.05783 11.4089 3.15354 11.3519 3.25202C11.3035 3.33096 11.261 3.41354 11.2247 3.49905C11.2012 3.55457 11.194 3.58418 11.1913 3.59435V3.59805C11.2017 3.67984 11.2297 3.75823 11.2734 3.82751C11.3411 3.95057 11.4341 4.07917 11.5514 4.23924L11.5604 4.25034C11.6669 4.39653 11.7951 4.57139 11.8943 4.75274C11.9954 4.93779 12.0929 5.17372 12.0929 5.44203C12.0929 5.61598 12.0342 5.78252 11.9855 5.8991C11.9333 6.02315 11.8724 6.14313 11.8032 6.25809C11.7327 6.3794 11.6568 6.49733 11.5757 6.61152L11.5586 6.63465L11.5541 6.64206L11.5523 6.64391C11.4806 6.74218 11.3738 6.80724 11.2553 6.82477C11.1368 6.84229 11.0164 6.81085 10.9205 6.73735C10.8247 6.66386 10.7612 6.55434 10.7441 6.43288C10.727 6.31142 10.7577 6.18797 10.8294 6.08969L10.8321 6.08599L10.8447 6.06841C10.9104 5.97578 10.9718 5.88007 11.0288 5.78159C11.0773 5.70265 11.1198 5.62007 11.1561 5.53456C11.1795 5.47904 11.1868 5.44944 11.1895 5.43926C11.1799 5.35626 11.1521 5.27656 11.1082 5.2061C11.0245 5.06256 10.9313 4.925 10.8294 4.79437L10.8203 4.78327C10.6984 4.62349 10.5869 4.45566 10.4864 4.28087C10.3635 4.07244 10.2951 3.83503 10.2879 3.59158C10.2879 3.41763 10.3465 3.25109 10.3953 3.13451C10.4485 3.00683 10.5162 2.881 10.5776 2.77553C10.6493 2.65478 10.7254 2.53688 10.8059 2.42209L10.8285 2.3897C10.9002 2.29143 11.007 2.22637 11.1255 2.20885C11.2439 2.19132 11.3644 2.22276 11.4602 2.29626C11.5561 2.36975 11.6196 2.47927 11.6366 2.60073C11.6537 2.72219 11.6231 2.84564 11.5514 2.94392Z" fill="#FFA83F"/>
<path d="M14.8449 13.8978C14.832 13.4649 14.7082 13.0427 14.4854 12.6714C14.2626 12.3001 13.9483 11.9922 13.5725 11.7771C13.4824 11.1613 13.1734 10.5987 12.7021 10.1923C12.2308 9.78589 11.6288 9.563 11.0065 9.56445C10.7679 9.56514 10.5304 9.59602 10.2996 9.65635C9.81299 9.19182 9.16614 8.93262 8.49343 8.93262C7.82072 8.93262 7.17387 9.19182 6.6873 9.65635C6.45648 9.59602 6.21896 9.56514 5.9804 9.56445C5.35566 9.55958 4.75026 9.78093 4.276 10.1876C3.80174 10.5943 3.49066 11.1589 3.40021 11.7771C3.02309 11.9913 2.70735 12.2988 2.4833 12.6702C2.25924 13.0415 2.13439 13.4643 2.12072 13.8978C1.93324 13.8978 1.75343 13.9722 1.62086 14.1048C1.4883 14.2374 1.41382 14.4172 1.41382 14.6047C1.41385 15.8455 1.7405 17.0645 2.36093 18.1391C2.98136 19.2136 3.87372 20.106 4.94832 20.7264V21.6737C4.94832 21.8611 5.0228 22.0409 5.15537 22.1735C5.28794 22.3061 5.46774 22.3806 5.65522 22.3806H11.3104C11.4979 22.3806 11.6777 22.3061 11.8103 22.1735C11.9429 22.0409 12.0173 21.8611 12.0173 21.6737V20.7264C13.0919 20.106 13.9843 19.2136 14.6047 18.1391C15.2252 17.0645 15.5518 15.8455 15.5518 14.6047C15.5518 14.4172 15.4774 14.2374 15.3448 14.1048C15.2122 13.9722 15.0324 13.8978 14.8449 13.8978ZM3.53452 13.8978C3.55248 13.6744 3.63677 13.4615 3.77659 13.2865C3.9164 13.1114 4.10535 12.9821 4.31918 12.9152L4.90591 12.7314L4.7928 12.1305C4.79465 11.9783 4.82647 11.8279 4.88644 11.6879C4.94641 11.548 5.03336 11.4212 5.14233 11.3149C5.2513 11.2085 5.38015 11.1247 5.52152 11.0681C5.66289 11.0116 5.81401 10.9835 5.96626 10.9853C6.17034 10.9847 6.37158 11.0332 6.55299 11.1267L7.12558 11.4448L7.47903 10.9005C7.58956 10.7357 7.73896 10.6007 7.91402 10.5074C8.08908 10.414 8.28443 10.3652 8.48283 10.3652C8.68122 10.3652 8.87657 10.414 9.05163 10.5074C9.2267 10.6007 9.37609 10.7357 9.48662 10.9005L9.84007 11.4448L10.4127 11.1267C10.5941 11.0332 10.7953 10.9847 10.9994 10.9853C11.3051 10.9815 11.6002 11.0979 11.821 11.3094C12.0418 11.5209 12.1707 11.8107 12.1799 12.1164L12.0668 12.7172L12.6465 12.9152C12.8603 12.9821 13.0493 13.1114 13.1891 13.2865C13.3289 13.4615 13.4132 13.6744 13.4311 13.8978H3.53452Z" fill="#FFA83F"/>
<path d="M25.8031 15.344C25.1631 15.1093 24.6778 14.8213 24.3471 14.48C24.2831 14.416 24.2511 14.352 24.2511 14.288C24.2511 14.192 24.3471 14.0213 24.5391 13.776C25.2431 13.8933 26.1924 13.952 27.3871 13.952H30.9871V12.464C30.0164 12.336 29.2431 11.9733 28.6671 11.376C28.1018 10.768 27.8191 10.0853 27.8191 9.328C27.8191 8.48533 28.1604 7.74933 28.8431 7.12C29.5364 6.48 30.4644 6.16 31.6271 6.16C32.7791 6.16 33.7018 6.48 34.3951 7.12C35.0884 7.74933 35.4351 8.48533 35.4351 9.328C35.4351 10.0853 35.1524 10.768 34.5871 11.376C34.0218 11.9733 33.2538 12.336 32.2831 12.464V13.952H35.6431C36.0058 13.952 36.4004 13.9413 36.8271 13.92C37.2538 13.888 37.6111 13.8613 37.8991 13.84C38.1871 13.8187 38.3524 13.808 38.3951 13.808C38.5124 13.808 38.5924 13.824 38.6351 13.856C38.6778 13.8773 38.6991 13.936 38.6991 14.032C38.6991 14.3307 38.6351 14.6827 38.5071 15.088C37.2484 15.0347 36.4218 15.008 36.0271 15.008H27.5951C27.1684 15.008 26.5711 15.12 25.8031 15.344ZM29.7871 10.816C30.2351 11.2213 30.8484 11.424 31.6271 11.424C32.4058 11.424 33.0191 11.2213 33.4671 10.816C33.9151 10.4 34.1391 9.904 34.1391 9.328C34.1391 8.752 33.9151 8.26133 33.4671 7.856C33.0191 7.44 32.4058 7.232 31.6271 7.232C30.8484 7.232 30.2351 7.44 29.7871 7.856C29.3391 8.26133 29.1151 8.752 29.1151 9.328C29.1151 9.904 29.3391 10.4 29.7871 10.816ZM28.7791 20.256C28.3951 20.256 28.1178 20.1707 27.9471 20C27.7871 19.8293 27.7071 19.5573 27.7071 19.184V17.568C27.7071 17.344 27.6484 17.1947 27.5311 17.12C27.3071 16.96 27.0084 16.864 26.6351 16.832C26.6564 16.5973 26.6938 16.4213 26.7471 16.304C26.7898 16.24 26.8484 16.208 26.9231 16.208C27.7444 16.208 28.3631 16.2827 28.7791 16.432C28.9391 16.4853 29.0191 16.576 29.0191 16.704V19.184H34.6191C34.7898 19.184 35.1204 19.1627 35.6111 19.12C36.1018 19.0773 36.3631 19.056 36.3951 19.056C36.5764 19.056 36.6671 19.12 36.6671 19.248C36.6671 19.5893 36.6084 19.9253 36.4911 20.256H28.7791ZM49.9692 20.816V7.04C49.9692 6.88 49.8786 6.73067 49.6972 6.592C49.4519 6.41067 49.0839 6.26667 48.5932 6.16C48.6679 5.88267 48.7372 5.69067 48.8012 5.584C48.8439 5.52 48.9026 5.488 48.9772 5.488C49.2226 5.488 49.5639 5.53067 50.0012 5.616C50.4492 5.70133 50.7906 5.78667 51.0252 5.872C51.1852 5.92533 51.2652 6.01067 51.2652 6.128V18.176C51.2652 18.752 51.2066 19.536 51.0892 20.528C51.0679 20.688 51.0092 20.7787 50.9132 20.8C50.6466 20.8747 50.3319 20.88 49.9692 20.816ZM40.7852 16.336C40.6359 16.4213 40.5132 16.416 40.4172 16.32C40.3746 16.2773 40.2946 16.1707 40.1772 16C40.0599 15.8187 39.9906 15.696 39.9692 15.632C41.1426 14.8747 42.3319 13.856 43.5372 12.576C44.7426 11.296 45.5799 10.064 46.0492 8.88H42.6572C42.3052 8.88 41.9159 8.95467 41.4892 9.104C41.1266 8.944 40.7799 8.70933 40.4492 8.4C40.3959 8.34667 40.3692 8.29867 40.3692 8.256C40.3692 8.10667 40.4492 7.92 40.6092 7.696C40.9612 7.76 41.6066 7.792 42.5452 7.792H45.8892C46.0279 7.792 46.2679 7.78133 46.6092 7.76C46.9612 7.73867 47.1852 7.728 47.2812 7.728C47.6119 7.728 47.7239 7.936 47.6172 8.352C47.2759 9.696 46.3692 11.1893 44.8972 12.832C43.4252 14.464 42.0546 15.632 40.7852 16.336ZM64.195 13.84V7.008C64.195 6.848 64.1043 6.69867 63.923 6.56C63.6776 6.37867 63.3096 6.23467 62.819 6.128C62.883 5.88267 62.9523 5.70133 63.027 5.584C63.0696 5.52 63.1283 5.488 63.203 5.488C63.4483 5.488 63.7896 5.53067 64.227 5.616C64.675 5.70133 65.0163 5.78667 65.251 5.872C65.411 5.92533 65.491 6.01067 65.491 6.128V9.28H66.227C66.4723 9.28 66.8296 9.25333 67.299 9.2C67.779 9.14667 68.0243 9.12 68.035 9.12C68.1523 9.12 68.2323 9.136 68.275 9.168C68.3176 9.18933 68.339 9.248 68.339 9.344C68.339 9.568 68.275 9.88267 68.147 10.288H65.491V11.2C65.491 11.7653 65.4323 12.5493 65.315 13.552C65.2936 13.712 65.235 13.8027 65.139 13.824C64.8723 13.8987 64.5576 13.904 64.195 13.84ZM55.571 13.44C55.1016 13.44 54.867 13.152 54.867 12.576V8.464C54.867 8.12267 54.5683 7.89867 53.971 7.792C53.9923 7.58933 54.0456 7.41867 54.131 7.28C54.1736 7.20533 54.2376 7.168 54.323 7.168C54.835 7.168 55.379 7.26933 55.955 7.472C56.083 7.51467 56.147 7.61067 56.147 7.76V9.152H60.179V7.824C60.179 7.48267 59.8803 7.25867 59.283 7.152C59.3043 6.94933 59.3576 6.77867 59.443 6.64C59.4856 6.56533 59.5496 6.528 59.635 6.528C60.147 6.528 60.691 6.62933 61.267 6.832C61.395 6.88533 61.459 6.98133 61.459 7.12V12.944C61.459 13.2747 61.299 13.44 60.979 13.44H55.571ZM56.147 12.4H60.179V10.192H56.147V12.4ZM58.195 20.496C57.7256 20.496 57.491 20.208 57.491 19.632V16.016C57.491 15.6 57.203 15.3547 56.627 15.28C56.6483 15.0453 56.6963 14.8747 56.771 14.768C56.8136 14.704 56.867 14.672 56.931 14.672C57.5923 14.6933 58.1416 14.7947 58.579 14.976C58.707 15.0293 58.771 15.1307 58.771 15.28V16.576H64.051V15.616C64.051 15.2 63.763 14.9547 63.187 14.88C63.2083 14.6453 63.2563 14.4747 63.331 14.368C63.3736 14.304 63.427 14.272 63.491 14.272C64.1523 14.2933 64.7016 14.3947 65.139 14.576C65.267 14.6293 65.331 14.7307 65.331 14.88V20C65.331 20.3307 65.171 20.496 64.851 20.496H58.195ZM58.771 19.44H64.051V17.632H58.771V19.44ZM79.2534 15.056V7.008C79.2534 6.848 79.1627 6.69867 78.9814 6.56C78.736 6.37867 78.368 6.23467 77.8774 6.128C77.9414 5.88267 78.0107 5.70133 78.0854 5.584C78.128 5.52 78.1867 5.488 78.2614 5.488C78.5067 5.488 78.848 5.53067 79.2854 5.616C79.7334 5.70133 80.0747 5.78667 80.3094 5.872C80.4694 5.92533 80.5494 6.01067 80.5494 6.128V9.792H81.2854C81.5307 9.792 81.888 9.76533 82.3574 9.712C82.8374 9.65867 83.0827 9.632 83.0934 9.632C83.2107 9.632 83.2907 9.648 83.3334 9.68C83.376 9.70133 83.3974 9.76 83.3974 9.856C83.3974 10.08 83.3334 10.3947 83.2054 10.8H80.5494V12.416C80.5494 12.9813 80.4907 13.7653 80.3734 14.768C80.352 14.928 80.2934 15.0187 80.1974 15.04C79.9307 15.1147 79.616 15.12 79.2534 15.056ZM69.4934 14.288C69.3867 14.2027 69.1947 14.0053 68.9174 13.696C69.824 12.9493 70.7894 11.9573 71.8134 10.72C72.848 9.48267 73.3654 8.60267 73.3654 8.08C73.3654 7.792 73.008 7.504 72.2934 7.216C72.4 7.024 72.5067 6.864 72.6134 6.736C72.656 6.69333 72.6987 6.672 72.7414 6.672C72.9334 6.672 73.2587 6.75733 73.7174 6.928C74.1867 7.088 74.5334 7.248 74.7574 7.408C74.8747 7.49333 74.9334 7.632 74.9334 7.824C74.9334 8.24 74.656 8.85867 74.1014 9.68C75.4027 10.864 76.544 11.888 77.5254 12.752C77.6427 12.8587 77.6427 12.9707 77.5254 13.088C77.344 13.28 77.0774 13.5307 76.7254 13.84C75.4454 12.4853 74.3734 11.3707 73.5094 10.496C72.944 11.232 72.304 11.9627 71.5894 12.688C70.8747 13.4133 70.2934 13.9413 69.8454 14.272C69.7067 14.368 69.5894 14.3733 69.4934 14.288ZM79.3014 19.952C78.6187 20.56 77.712 20.864 76.5814 20.864C75.4507 20.864 74.544 20.56 73.8614 19.952C73.1787 19.3547 72.8374 18.64 72.8374 17.808C72.8374 16.976 73.1787 16.2613 73.8614 15.664C74.544 15.056 75.4507 14.752 76.5814 14.752C77.712 14.752 78.6187 15.056 79.3014 15.664C79.984 16.2613 80.3254 16.976 80.3254 17.808C80.3254 18.64 79.984 19.3547 79.3014 19.952ZM74.7894 19.2C75.2374 19.5947 75.8347 19.792 76.5814 19.792C77.328 19.792 77.92 19.5947 78.3574 19.2C78.8054 18.816 79.0294 18.352 79.0294 17.808C79.0294 17.264 78.8054 16.8 78.3574 16.416C77.92 16.0213 77.328 15.824 76.5814 15.824C75.8347 15.824 75.2374 16.0213 74.7894 16.416C74.352 16.8 74.1334 17.264 74.1334 17.808C74.1334 18.352 74.352 18.816 74.7894 19.2Z" fill="#FFA83F"/>
</svg>
